<svg xmlns="http://www.w3.org/2000/svg" width="150" viewBox="0 0 150 150" height="150" version="1.0"><defs><clipPath id="a"><path d="M 3 3.75 L 147 3.75 L 147 146.25 L 3 146.25 Z M 3 3.75"/></clipPath><clipPath id="b"><path d="M 131 3.75 L 147 3.75 L 147 19 L 131 19 Z M 131 3.75"/></clipPath></defs><path fill="#F1BC19" d="M 127.429688 5.808594 C 127.183594 5.808594 126.945312 5.855469 126.714844 5.953125 C 126.484375 6.046875 126.28125 6.183594 126.105469 6.359375 C 125.929688 6.535156 125.796875 6.734375 125.699219 6.964844 C 125.605469 7.195312 125.558594 7.433594 125.558594 7.683594 C 125.558594 7.929688 125.605469 8.167969 125.699219 8.398438 C 125.796875 8.628906 125.929688 8.832031 126.105469 9.007812 C 126.28125 9.183594 126.484375 9.316406 126.714844 9.414062 C 126.945312 9.507812 127.183594 9.554688 127.429688 9.554688 C 127.679688 9.554688 127.917969 9.507812 128.148438 9.414062 C 128.378906 9.316406 128.578125 9.183594 128.753906 9.007812 C 128.929688 8.832031 129.066406 8.628906 129.160156 8.398438 C 129.257812 8.167969 129.304688 7.929688 129.304688 7.683594 C 129.304688 7.433594 129.257812 7.195312 129.160156 6.964844 C 129.066406 6.734375 128.929688 6.535156 128.753906 6.359375 C 128.578125 6.183594 128.378906 6.046875 128.148438 5.953125 C 127.917969 5.855469 127.679688 5.808594 127.429688 5.808594 Z M 127.429688 5.808594"/><g clip-path="url(#a)"><path fill="#FCE0A2" d="M 75 3.9375 C 73.835938 3.9375 72.671875 3.964844 71.507812 4.023438 C 70.34375 4.082031 69.183594 4.164062 68.027344 4.28125 C 66.867188 4.394531 65.710938 4.535156 64.558594 4.707031 C 63.40625 4.878906 62.261719 5.078125 61.117188 5.304688 C 59.976562 5.53125 58.839844 5.785156 57.710938 6.070312 C 56.582031 6.351562 55.457031 6.664062 54.34375 7 C 53.230469 7.339844 52.125 7.703125 51.027344 8.097656 C 49.933594 8.488281 48.84375 8.90625 47.769531 9.355469 C 46.695312 9.800781 45.628906 10.269531 44.578125 10.769531 C 43.523438 11.265625 42.484375 11.789062 41.457031 12.339844 C 40.429688 12.886719 39.417969 13.460938 38.417969 14.0625 C 37.417969 14.660156 36.4375 15.28125 35.46875 15.929688 C 34.5 16.578125 33.546875 17.246094 32.613281 17.941406 C 31.675781 18.632812 30.757812 19.351562 29.859375 20.089844 C 28.957031 20.828125 28.078125 21.589844 27.214844 22.371094 C 26.351562 23.152344 25.507812 23.953125 24.683594 24.777344 C 23.863281 25.601562 23.058594 26.445312 22.277344 27.308594 C 21.496094 28.171875 20.734375 29.050781 19.996094 29.953125 C 19.257812 30.851562 18.539062 31.769531 17.847656 32.707031 C 17.152344 33.640625 16.484375 34.59375 15.835938 35.5625 C 15.1875 36.53125 14.566406 37.511719 13.96875 38.511719 C 13.367188 39.511719 12.792969 40.523438 12.246094 41.550781 C 11.695312 42.578125 11.171875 43.617188 10.675781 44.671875 C 10.175781 45.722656 9.707031 46.789062 9.261719 47.863281 C 8.8125 48.9375 8.394531 50.023438 8.003906 51.121094 C 7.609375 52.21875 7.246094 53.324219 6.90625 54.4375 C 6.570312 55.550781 6.257812 56.675781 5.976562 57.804688 C 5.691406 58.933594 5.4375 60.070312 5.210938 61.210938 C 4.984375 62.355469 4.785156 63.5 4.613281 64.652344 C 4.441406 65.804688 4.300781 66.960938 4.1875 68.117188 C 4.070312 69.277344 3.988281 70.4375 3.929688 71.601562 C 3.871094 72.765625 3.84375 73.929688 3.84375 75.09375 C 3.84375 76.257812 3.871094 77.421875 3.929688 78.585938 C 3.988281 79.75 4.070312 80.910156 4.1875 82.066406 C 4.300781 83.226562 4.441406 84.382812 4.613281 85.535156 C 4.785156 86.6875 4.984375 87.832031 5.210938 88.976562 C 5.4375 90.117188 5.691406 91.253906 5.976562 92.382812 C 6.257812 93.511719 6.570312 94.636719 6.90625 95.75 C 7.246094 96.863281 7.609375 97.96875 8.003906 99.066406 C 8.394531 100.160156 8.8125 101.25 9.261719 102.324219 C 9.707031 103.398438 10.175781 104.464844 10.675781 105.515625 C 11.171875 106.570312 11.695312 107.609375 12.246094 108.636719 C 12.792969 109.664062 13.367188 110.675781 13.96875 111.675781 C 14.566406 112.675781 15.1875 113.65625 15.835938 114.625 C 16.484375 115.59375 17.152344 116.546875 17.847656 117.480469 C 18.539062 118.417969 19.257812 119.335938 19.996094 120.234375 C 20.734375 121.136719 21.496094 122.015625 22.277344 122.878906 C 23.058594 123.742188 23.863281 124.585938 24.683594 125.410156 C 25.507812 126.230469 26.351562 127.035156 27.214844 127.816406 C 28.078125 128.597656 28.957031 129.359375 29.859375 130.097656 C 30.757812 130.835938 31.675781 131.554688 32.613281 132.246094 C 33.546875 132.941406 34.5 133.609375 35.46875 134.257812 C 36.4375 134.90625 37.417969 135.527344 38.417969 136.125 C 39.417969 136.726562 40.429688 137.300781 41.457031 137.847656 C 42.484375 138.398438 43.523438 138.921875 44.578125 139.417969 C 45.628906 139.917969 46.695312 140.386719 47.769531 140.832031 C 48.84375 141.277344 49.933594 141.699219 51.027344 142.089844 C 52.125 142.484375 53.230469 142.847656 54.34375 143.1875 C 55.457031 143.523438 56.582031 143.835938 57.710938 144.117188 C 58.839844 144.402344 59.976562 144.65625 61.117188 144.882812 C 62.261719 145.109375 63.40625 145.308594 64.558594 145.480469 C 65.710938 145.652344 66.867188 145.792969 68.027344 145.90625 C 69.183594 146.019531 70.34375 146.105469 71.507812 146.164062 C 72.671875 146.222656 73.835938 146.25 75 146.25 C 76.164062 146.25 77.328125 146.222656 78.492188 146.164062 C 79.65625 146.105469 80.816406 146.019531 81.972656 145.90625 C 83.132812 145.792969 84.289062 145.652344 85.441406 145.480469 C 86.59375 145.308594 87.738281 145.109375 88.882812 144.882812 C 90.023438 144.65625 91.160156 144.402344 92.289062 144.117188 C 93.417969 143.835938 94.542969 143.523438 95.65625 143.1875 C 96.769531 142.847656 97.875 142.484375 98.972656 142.089844 C 100.066406 141.699219 101.15625 141.277344 102.230469 140.832031 C 103.304688 140.386719 104.371094 139.917969 105.421875 139.417969 C 106.476562 138.921875 107.515625 138.398438 108.542969 137.847656 C 109.570312 137.300781 110.582031 136.726562 111.582031 136.125 C 112.582031 135.527344 113.5625 134.90625 114.53125 134.257812 C 115.5 133.609375 116.453125 132.941406 117.386719 132.246094 C 118.324219 131.554688 119.242188 130.835938 120.140625 130.097656 C 121.042969 129.359375 121.921875 128.597656 122.785156 127.816406 C 123.648438 127.035156 124.492188 126.230469 125.316406 125.410156 C 126.136719 124.585938 126.941406 123.742188 127.722656 122.878906 C 128.503906 122.015625 129.265625 121.136719 130.003906 120.234375 C 130.742188 119.335938 131.460938 118.417969 132.152344 117.480469 C 132.847656 116.546875 133.515625 115.59375 134.164062 114.625 C 134.8125 113.65625 135.433594 112.675781 136.03125 111.675781 C 136.632812 110.675781 137.207031 109.664062 137.753906 108.636719 C 138.304688 107.609375 138.828125 106.570312 139.324219 105.515625 C 139.824219 104.464844 140.292969 103.398438 140.738281 102.324219 C 141.183594 101.25 141.605469 100.160156 141.996094 99.066406 C 142.390625 97.96875 142.753906 96.863281 143.09375 95.75 C 143.429688 94.636719 143.742188 93.511719 144.023438 92.382812 C 144.308594 91.253906 144.5625 90.117188 144.789062 88.976562 C 145.015625 87.832031 145.214844 86.6875 145.386719 85.535156 C 145.558594 84.382812 145.699219 83.226562 145.8125 82.066406 C 145.929688 80.910156 146.011719 79.75 146.070312 78.585938 C 146.128906 77.421875 146.15625 76.257812 146.15625 75.09375 C 146.15625 73.929688 146.128906 72.765625 146.070312 71.601562 C 146.011719 70.4375 145.929688 69.277344 145.8125 68.117188 C 145.699219 66.960938 145.558594 65.804688 145.386719 64.652344 C 145.214844 63.5 145.015625 62.355469 144.789062 61.210938 C 144.5625 60.070312 144.308594 58.933594 144.023438 57.804688 C 143.742188 56.675781 143.429688 55.550781 143.09375 54.4375 C 142.753906 53.324219 142.390625 52.21875 141.996094 51.121094 C 141.605469 50.023438 141.183594 48.9375 140.738281 47.863281 C 140.292969 46.789062 139.824219 45.722656 139.324219 44.671875 C 138.828125 43.617188 138.304688 42.578125 137.753906 41.550781 C 137.207031 40.523438 136.632812 39.511719 136.03125 38.511719 C 135.433594 37.511719 134.8125 36.53125 134.164062 35.5625 C 133.515625 34.59375 132.847656 33.640625 132.152344 32.707031 C 131.460938 31.769531 130.742188 30.851562 130.003906 29.953125 C 129.265625 29.050781 128.503906 28.171875 127.722656 27.308594 C 126.941406 26.445312 126.136719 25.601562 125.316406 24.777344 C 124.492188 23.953125 123.648438 23.152344 122.785156 22.371094 C 121.921875 21.589844 121.042969 20.828125 120.140625 20.089844 C 119.242188 19.351562 118.324219 18.632812 117.386719 17.941406 C 116.453125 17.246094 115.5 16.578125 114.53125 15.929688 C 113.5625 15.28125 112.582031 14.660156 111.582031 14.0625 C 110.582031 13.460938 109.570312 12.886719 108.542969 12.339844 C 107.515625 11.789062 106.476562 11.265625 105.421875 10.769531 C 104.371094 10.269531 103.304688 9.800781 102.230469 9.355469 C 101.15625 8.90625 100.066406 8.488281 98.972656 8.097656 C 97.875 7.703125 96.769531 7.339844 95.65625 7 C 94.542969 6.664062 93.417969 6.351562 92.289062 6.070312 C 91.160156 5.785156 90.023438 5.53125 88.882812 5.304688 C 87.738281 5.078125 86.59375 4.878906 85.441406 4.707031 C 84.289062 4.535156 83.132812 4.394531 81.972656 4.28125 C 80.816406 4.164062 79.65625 4.082031 78.492188 4.023438 C 77.328125 3.964844 76.164062 3.9375 75 3.9375 Z M 75 3.9375"/></g><g clip-path="url(#b)"><path fill="#F1BC19" d="M 138.667969 3.9375 C 138.175781 3.9375 137.6875 3.984375 137.203125 4.082031 C 136.722656 4.175781 136.253906 4.320312 135.800781 4.507812 C 135.34375 4.695312 134.914062 4.925781 134.503906 5.199219 C 134.097656 5.472656 133.71875 5.785156 133.371094 6.132812 C 133.023438 6.480469 132.710938 6.855469 132.4375 7.265625 C 132.164062 7.675781 131.933594 8.105469 131.746094 8.5625 C 131.558594 9.015625 131.414062 9.484375 131.320312 9.964844 C 131.222656 10.449219 131.175781 10.9375 131.175781 11.425781 C 131.175781 11.917969 131.222656 12.40625 131.320312 12.886719 C 131.414062 13.371094 131.558594 13.839844 131.746094 14.292969 C 131.933594 14.75 132.164062 15.179688 132.4375 15.589844 C 132.710938 15.996094 133.023438 16.375 133.371094 16.722656 C 133.71875 17.070312 134.097656 17.382812 134.503906 17.65625 C 134.914062 17.929688 135.34375 18.160156 135.800781 18.347656 C 136.253906 18.535156 136.722656 18.675781 137.203125 18.773438 C 137.6875 18.871094 138.175781 18.917969 138.667969 18.917969 C 139.15625 18.917969 139.644531 18.871094 140.128906 18.773438 C 140.609375 18.675781 141.078125 18.535156 141.53125 18.347656 C 141.988281 18.160156 142.417969 17.929688 142.828125 17.65625 C 143.238281 17.382812 143.613281 17.070312 143.960938 16.722656 C 144.308594 16.375 144.621094 15.996094 144.894531 15.589844 C 145.167969 15.179688 145.398438 14.75 145.585938 14.292969 C 145.773438 13.839844 145.917969 13.371094 146.011719 12.886719 C 146.109375 12.40625 146.15625 11.917969 146.15625 11.425781 C 146.15625 10.9375 146.109375 10.449219 146.011719 9.964844 C 145.917969 9.484375 145.773438 9.015625 145.585938 8.5625 C 145.398438 8.105469 145.167969 7.675781 144.894531 7.265625 C 144.621094 6.855469 144.308594 6.480469 143.960938 6.132812 C 143.613281 5.785156 143.238281 5.472656 142.828125 5.199219 C 142.417969 4.925781 141.988281 4.695312 141.53125 4.507812 C 141.078125 4.320312 140.609375 4.175781 140.128906 4.082031 C 139.644531 3.984375 139.15625 3.9375 138.667969 3.9375 Z M 138.667969 3.9375"/></g><path fill="#EE3E54" d="M 7.589844 26.40625 C 7.09375 26.40625 6.613281 26.503906 6.15625 26.691406 C 5.695312 26.882812 5.292969 27.152344 4.941406 27.503906 C 4.589844 27.855469 4.320312 28.261719 4.128906 28.71875 C 3.9375 29.179688 3.84375 29.65625 3.84375 30.152344 C 3.84375 30.648438 3.9375 31.128906 4.128906 31.585938 C 4.320312 32.042969 4.589844 32.449219 4.941406 32.800781 C 5.292969 33.152344 5.695312 33.421875 6.15625 33.613281 C 6.613281 33.804688 7.09375 33.898438 7.589844 33.898438 C 8.085938 33.898438 8.5625 33.804688 9.023438 33.613281 C 9.480469 33.421875 9.886719 33.152344 10.238281 32.800781 C 10.589844 32.449219 10.859375 32.042969 11.046875 31.585938 C 11.238281 31.128906 11.332031 30.648438 11.332031 30.152344 C 11.332031 29.65625 11.238281 29.179688 11.046875 28.71875 C 10.859375 28.261719 10.589844 27.855469 10.238281 27.503906 C 9.886719 27.152344 9.480469 26.882812 9.023438 26.691406 C 8.5625 26.503906 8.085938 26.40625 7.589844 26.40625 Z M 7.589844 26.40625"/><path fill="#FBCD59" d="M 127.429688 121.90625 C 126.933594 121.90625 126.457031 122.003906 125.996094 122.191406 C 125.539062 122.382812 125.132812 122.652344 124.78125 123.003906 C 124.433594 123.355469 124.160156 123.761719 123.972656 124.21875 C 123.78125 124.675781 123.6875 125.15625 123.6875 125.652344 C 123.6875 126.148438 123.78125 126.625 123.972656 127.085938 C 124.160156 127.542969 124.433594 127.949219 124.78125 128.300781 C 125.132812 128.652344 125.539062 128.921875 125.996094 129.113281 C 126.457031 129.300781 126.933594 129.398438 127.429688 129.398438 C 127.925781 129.398438 128.40625 129.300781 128.863281 129.113281 C 129.324219 128.921875 129.726562 128.652344 130.078125 128.300781 C 130.429688 127.949219 130.699219 127.542969 130.890625 127.085938 C 131.082031 126.625 131.175781 126.148438 131.175781 125.652344 C 131.175781 125.15625 131.082031 124.675781 130.890625 124.21875 C 130.699219 123.761719 130.429688 123.355469 130.078125 123.003906 C 129.726562 122.652344 129.324219 122.382812 128.863281 122.191406 C 128.40625 122.003906 127.925781 121.90625 127.429688 121.90625 Z M 13.207031 120.035156 C 12.714844 120.035156 12.226562 120.082031 11.746094 120.179688 C 11.261719 120.273438 10.792969 120.417969 10.339844 120.605469 C 9.886719 120.792969 9.453125 121.023438 9.046875 121.296875 C 8.636719 121.570312 8.257812 121.878906 7.910156 122.226562 C 7.5625 122.574219 7.25 122.953125 6.976562 123.363281 C 6.707031 123.773438 6.472656 124.203125 6.285156 124.660156 C 6.097656 125.113281 5.957031 125.582031 5.859375 126.0625 C 5.765625 126.546875 5.714844 127.03125 5.714844 127.523438 C 5.714844 128.015625 5.765625 128.503906 5.859375 128.984375 C 5.957031 129.46875 6.097656 129.9375 6.285156 130.390625 C 6.472656 130.84375 6.707031 131.277344 6.976562 131.6875 C 7.25 132.09375 7.5625 132.472656 7.910156 132.820312 C 8.257812 133.167969 8.636719 133.480469 9.046875 133.753906 C 9.453125 134.027344 9.886719 134.257812 10.339844 134.445312 C 10.792969 134.632812 11.261719 134.773438 11.746094 134.871094 C 12.226562 134.964844 12.714844 135.015625 13.207031 135.015625 C 13.699219 135.015625 14.183594 134.964844 14.667969 134.871094 C 15.148438 134.773438 15.617188 134.632812 16.074219 134.445312 C 16.527344 134.257812 16.957031 134.027344 17.367188 133.753906 C 17.777344 133.480469 18.15625 133.167969 18.503906 132.820312 C 18.851562 132.472656 19.160156 132.09375 19.433594 131.6875 C 19.707031 131.277344 19.9375 130.84375 20.125 130.390625 C 20.316406 129.9375 20.457031 129.46875 20.550781 128.984375 C 20.648438 128.503906 20.695312 128.015625 20.695312 127.523438 C 20.695312 127.03125 20.648438 126.546875 20.550781 126.0625 C 20.457031 125.582031 20.316406 125.113281 20.125 124.660156 C 19.9375 124.203125 19.707031 123.773438 19.433594 123.363281 C 19.160156 122.953125 18.851562 122.574219 18.503906 122.226562 C 18.15625 121.878906 17.777344 121.570312 17.367188 121.296875 C 16.957031 121.023438 16.527344 120.792969 16.074219 120.605469 C 15.617188 120.417969 15.148438 120.273438 14.667969 120.179688 C 14.183594 120.082031 13.699219 120.035156 13.207031 120.035156 Z M 13.207031 120.035156"/><path fill="#EE3E54" d="M 26.3125 133.140625 C 25.816406 133.140625 25.339844 133.238281 24.882812 133.425781 C 24.421875 133.617188 24.015625 133.886719 23.664062 134.238281 C 23.316406 134.589844 23.042969 134.996094 22.855469 135.453125 C 22.664062 135.914062 22.570312 136.390625 22.570312 136.886719 C 22.570312 137.382812 22.664062 137.863281 22.855469 138.320312 C 23.042969 138.777344 23.316406 139.183594 23.664062 139.535156 C 24.015625 139.886719 24.421875 140.15625 24.882812 140.347656 C 25.339844 140.539062 25.816406 140.632812 26.3125 140.632812 C 26.8125 140.632812 27.289062 140.539062 27.746094 140.347656 C 28.207031 140.15625 28.609375 139.886719 28.960938 139.535156 C 29.3125 139.183594 29.585938 138.777344 29.773438 138.320312 C 29.964844 137.863281 30.058594 137.382812 30.058594 136.886719 C 30.058594 136.390625 29.964844 135.914062 29.773438 135.453125 C 29.585938 134.996094 29.3125 134.589844 28.960938 134.238281 C 28.609375 133.886719 28.207031 133.617188 27.746094 133.425781 C 27.289062 133.238281 26.8125 133.140625 26.3125 133.140625 Z M 26.3125 133.140625"/><path fill="#FFF" d="M 105.863281 123.84375 C 105.558594 123.84375 105.257812 123.871094 104.957031 123.933594 C 104.660156 123.992188 104.367188 124.082031 104.085938 124.195312 C 103.804688 124.3125 103.535156 124.457031 103.28125 124.625 C 103.027344 124.796875 102.792969 124.988281 102.578125 125.203125 C 102.363281 125.421875 102.167969 125.65625 102 125.910156 C 101.828125 126.164062 101.6875 126.429688 101.570312 126.714844 C 101.453125 126.996094 101.363281 127.285156 101.304688 127.585938 C 101.246094 127.886719 101.214844 128.1875 101.214844 128.492188 C 101.214844 128.796875 101.246094 129.101562 101.304688 129.398438 C 101.363281 129.699219 101.453125 129.988281 101.570312 130.273438 C 101.6875 130.554688 101.828125 130.820312 102 131.074219 C 102.167969 131.328125 102.363281 131.566406 102.578125 131.78125 C 102.792969 131.996094 103.027344 132.1875 103.28125 132.359375 C 103.535156 132.527344 103.804688 132.671875 104.085938 132.789062 C 104.367188 132.90625 104.660156 132.992188 104.957031 133.054688 C 105.257812 133.113281 105.558594 133.140625 105.863281 133.140625 C 106.171875 133.140625 106.472656 133.113281 106.773438 133.054688 C 107.070312 132.992188 107.363281 132.90625 107.644531 132.789062 C 107.925781 132.671875 108.195312 132.527344 108.449219 132.359375 C 108.703125 132.1875 108.9375 131.996094 109.152344 131.78125 C 109.367188 131.566406 109.5625 131.328125 109.730469 131.074219 C 109.902344 130.820312 110.042969 130.554688 110.160156 130.273438 C 110.277344 129.988281 110.367188 129.699219 110.425781 129.398438 C 110.484375 129.101562 110.515625 128.796875 110.515625 128.492188 C 110.515625 128.1875 110.484375 127.886719 110.425781 127.585938 C 110.367188 127.285156 110.277344 126.996094 110.160156 126.714844 C 110.042969 126.429688 109.902344 126.164062 109.730469 125.910156 C 109.5625 125.65625 109.367188 125.421875 109.152344 125.203125 C 108.9375 124.988281 108.703125 124.796875 108.449219 124.625 C 108.195312 124.457031 107.925781 124.3125 107.644531 124.195312 C 107.363281 124.082031 107.070312 123.992188 106.773438 123.933594 C 106.472656 123.871094 106.171875 123.84375 105.863281 123.84375 Z M 11.332031 69.476562 C 11.085938 69.476562 10.847656 69.523438 10.617188 69.617188 C 10.386719 69.714844 10.183594 69.847656 10.007812 70.023438 C 9.835938 70.199219 9.699219 70.402344 9.605469 70.632812 C 9.507812 70.863281 9.460938 71.101562 9.460938 71.347656 C 9.460938 71.597656 9.507812 71.835938 9.605469 72.066406 C 9.699219 72.292969 9.835938 72.496094 10.007812 72.671875 C 10.183594 72.847656 10.386719 72.984375 10.617188 73.078125 C 10.847656 73.171875 11.085938 73.222656 11.332031 73.222656 C 11.582031 73.222656 11.820312 73.171875 12.050781 73.078125 C 12.28125 72.984375 12.480469 72.847656 12.65625 72.671875 C 12.832031 72.496094 12.96875 72.292969 13.0625 72.066406 C 13.160156 71.835938 13.207031 71.597656 13.207031 71.347656 C 13.207031 71.101562 13.160156 70.863281 13.0625 70.632812 C 12.96875 70.402344 12.832031 70.199219 12.65625 70.023438 C 12.480469 69.847656 12.28125 69.714844 12.050781 69.617188 C 11.820312 69.523438 11.582031 69.476562 11.332031 69.476562 Z M 11.332031 69.476562"/><path fill="#F1BC19" d="M 142.410156 37.644531 C 142.164062 37.644531 141.925781 37.691406 141.695312 37.785156 C 141.464844 37.878906 141.261719 38.015625 141.085938 38.191406 C 140.910156 38.367188 140.777344 38.570312 140.679688 38.800781 C 140.585938 39.027344 140.539062 39.265625 140.539062 39.515625 C 140.539062 39.765625 140.585938 40.003906 140.679688 40.230469 C 140.777344 40.460938 140.910156 40.664062 141.085938 40.839844 C 141.261719 41.015625 141.464844 41.152344 141.695312 41.246094 C 141.925781 41.339844 142.164062 41.386719 142.410156 41.386719 C 142.660156 41.386719 142.898438 41.339844 143.128906 41.246094 C 143.355469 41.152344 143.558594 41.015625 143.734375 40.839844 C 143.910156 40.664062 144.046875 40.460938 144.140625 40.230469 C 144.234375 40.003906 144.285156 39.765625 144.285156 39.515625 C 144.285156 39.265625 144.234375 39.027344 144.140625 38.800781 C 144.046875 38.570312 143.910156 38.367188 143.734375 38.191406 C 143.558594 38.015625 143.355469 37.878906 143.128906 37.785156 C 142.898438 37.691406 142.660156 37.644531 142.410156 37.644531 Z M 142.410156 37.644531"/><path fill="#FFF" d="M 131.175781 101.308594 C 130.679688 101.308594 130.203125 101.402344 129.742188 101.59375 C 129.285156 101.785156 128.878906 102.054688 128.527344 102.40625 C 128.175781 102.757812 127.90625 103.164062 127.714844 103.621094 C 127.527344 104.078125 127.429688 104.558594 127.429688 105.054688 C 127.429688 105.550781 127.527344 106.027344 127.714844 106.488281 C 127.90625 106.945312 128.175781 107.351562 128.527344 107.703125 C 128.878906 108.054688 129.285156 108.324219 129.742188 108.515625 C 130.203125 108.703125 130.679688 108.800781 131.175781 108.800781 C 131.671875 108.800781 132.152344 108.703125 132.609375 108.515625 C 133.066406 108.324219 133.472656 108.054688 133.824219 107.703125 C 134.175781 107.351562 134.445312 106.945312 134.636719 106.488281 C 134.824219 106.027344 134.921875 105.550781 134.921875 105.054688 C 134.921875 104.558594 134.824219 104.078125 134.636719 103.621094 C 134.445312 103.164062 134.175781 102.757812 133.824219 102.40625 C 133.472656 102.054688 133.066406 101.785156 132.609375 101.59375 C 132.152344 101.402344 131.671875 101.308594 131.175781 101.308594 Z M 131.175781 101.308594"/><path fill="#A1A1CA" d="M 35.65625 101.328125 L 35.65625 48.859375 C 35.65625 41.617188 41.523438 35.75 48.765625 35.75 L 101.238281 35.75 C 108.476562 35.75 114.347656 41.617188 114.347656 48.859375 L 114.347656 101.332031 C 114.347656 108.570312 108.476562 114.4375 101.238281 114.4375 L 48.765625 114.4375 C 41.523438 114.4375 35.65625 108.570312 35.65625 101.328125 Z M 35.65625 101.328125"/><path fill="#472B29" d="M 101.214844 36.519531 C 108.03125 36.519531 113.574219 42.0625 113.574219 48.878906 L 113.574219 101.308594 C 113.574219 108.125 108.03125 113.667969 101.214844 113.667969 L 48.785156 113.667969 C 41.96875 113.667969 36.425781 108.125 36.425781 101.308594 L 36.425781 48.878906 C 36.425781 42.0625 41.96875 36.519531 48.785156 36.519531 L 101.214844 36.519531 M 101.214844 33.898438 L 48.785156 33.898438 C 40.511719 33.898438 33.804688 40.605469 33.804688 48.878906 L 33.804688 101.308594 C 33.804688 109.582031 40.511719 116.289062 48.785156 116.289062 L 101.214844 116.289062 C 109.488281 116.289062 116.195312 109.582031 116.195312 101.308594 L 116.195312 48.878906 C 116.195312 40.605469 109.488281 33.898438 101.214844 33.898438 Z M 101.214844 33.898438"/><path fill="#FDFCEE" d="M 43.167969 101.308594 L 43.167969 48.878906 C 43.167969 45.773438 45.683594 43.261719 48.785156 43.261719 L 101.214844 43.261719 C 104.316406 43.261719 106.832031 45.773438 106.832031 48.878906 L 106.832031 101.308594 C 106.832031 104.410156 104.316406 106.925781 101.214844 106.925781 L 48.785156 106.925781 C 45.683594 106.925781 43.167969 104.410156 43.167969 101.308594 Z M 43.167969 101.308594"/><path fill="#472B29" d="M 107.769531 65.730469 C 107.253906 65.730469 106.832031 65.3125 106.832031 64.792969 L 106.832031 61.050781 C 106.832031 60.53125 107.253906 60.113281 107.769531 60.113281 C 108.285156 60.113281 108.707031 60.53125 108.707031 61.050781 L 108.707031 64.792969 C 108.707031 65.3125 108.285156 65.730469 107.769531 65.730469 Z M 107.769531 65.730469"/><path fill="#472B29" d="M 107.769531 76.964844 C 107.253906 76.964844 106.832031 76.546875 106.832031 76.03125 L 106.832031 70.414062 C 106.832031 69.894531 107.253906 69.476562 107.769531 69.476562 C 108.285156 69.476562 108.707031 69.894531 108.707031 70.414062 L 108.707031 76.03125 C 108.707031 76.546875 108.285156 76.964844 107.769531 76.964844 Z M 107.769531 76.964844"/><path fill="#472B29" d="M 108.707031 81.648438 L 108.707031 100.371094 C 108.707031 105.007812 104.914062 108.800781 100.277344 108.800781 L 49.722656 108.800781 C 45.066406 108.800781 41.292969 105.027344 41.292969 100.371094 L 41.292969 49.8125 C 41.292969 45.179688 45.085938 41.386719 49.722656 41.386719 L 89.042969 41.386719 C 89.566406 41.386719 89.980469 41.800781 89.980469 42.324219 C 89.980469 42.847656 89.566406 43.261719 89.042969 43.261719 L 49.722656 43.261719 C 46.101562 43.261719 43.167969 46.195312 43.167969 49.8125 L 43.167969 100.371094 C 43.167969 103.992188 46.101562 106.925781 49.722656 106.925781 L 100.277344 106.925781 C 103.898438 106.925781 106.832031 103.992188 106.832031 100.371094 L 106.832031 81.648438 C 106.832031 81.125 107.246094 80.710938 107.769531 80.710938 C 108.292969 80.710938 108.707031 81.125 108.707031 81.648438 Z M 108.707031 81.648438"/><path fill="#FDFCEE" d="M 94.039062 69.347656 L 78.679688 74.632812 L 77.335938 73.242188 L 82.605469 57.882812 Z M 94.039062 69.347656"/><path fill="#8889B9" d="M 85.53125 72.25 L 78.675781 74.640625 L 77.332031 73.230469 L 79.691406 66.414062 Z M 85.53125 72.25"/><path fill="#F1BC19" d="M 131.476562 31.707031 L 93.886719 69.234375 L 82.691406 58.015625 L 120.257812 20.492188 C 120.859375 19.910156 121.644531 19.574219 122.488281 19.574219 C 123.144531 19.574219 123.78125 19.777344 124.324219 20.152344 C 125.464844 20.957031 126.792969 22.121094 128.328125 23.636719 C 129.847656 25.171875 131.007812 26.5 131.8125 27.644531 C 132.691406 28.917969 132.5625 30.621094 131.476562 31.707031 Z M 131.476562 31.707031"/><path fill="#8889B9" d="M 127.4375 36.664062 L 122.71875 41.382812 L 110.582031 29.25 L 115.300781 24.53125 Z M 127.4375 36.664062"/><path fill="#FCB9B9" d="M 131.929688 32.171875 L 126.761719 37.339844 L 114.625 25.203125 L 119.792969 20.035156 C 121.109375 18.71875 123.171875 18.546875 124.695312 19.617188 C 125.734375 20.34375 127.070312 21.464844 128.785156 23.179688 C 130.5 24.894531 131.621094 26.230469 132.347656 27.265625 C 133.417969 28.792969 133.246094 30.855469 131.929688 32.171875 Z M 131.929688 32.171875"/><path fill="#472B29" d="M 82.605469 58.566406 L 83.265625 57.902344 L 94.09375 68.730469 L 93.429688 69.390625 Z M 82.605469 58.566406"/><path fill="#472B29" d="M 123.054688 32.957031 C 122.871094 33.140625 122.566406 33.140625 122.378906 32.957031 L 115.191406 25.765625 C 115.003906 25.578125 115.003906 25.277344 115.191406 25.089844 C 115.375 24.90625 115.679688 24.90625 115.863281 25.089844 L 123.054688 32.28125 C 123.242188 32.46875 123.242188 32.769531 123.054688 32.957031 Z M 126.761719 36.664062 C 126.578125 36.851562 126.273438 36.851562 126.089844 36.664062 L 124.402344 34.980469 C 124.21875 34.792969 124.21875 34.492188 124.402344 34.304688 C 124.589844 34.121094 124.890625 34.121094 125.078125 34.304688 L 126.761719 35.992188 C 126.949219 36.175781 126.949219 36.476562 126.761719 36.664062 Z M 126.761719 36.664062"/><path fill="#472B29" d="M 122.492188 20.320312 C 122.992188 20.320312 123.476562 20.476562 123.890625 20.765625 C 124.992188 21.539062 126.304688 22.683594 127.792969 24.171875 C 129.304688 25.6875 130.464844 27.019531 131.238281 28.128906 C 131.898438 29.078125 131.757812 30.359375 130.9375 31.175781 L 93.644531 68.472656 L 78.601562 73.488281 L 78.480469 73.367188 L 83.492188 58.324219 L 120.789062 21.027344 C 121.242188 20.574219 121.847656 20.320312 122.492188 20.320312 M 122.492188 18.917969 C 121.507812 18.917969 120.535156 19.296875 119.792969 20.035156 L 82.878906 56.953125 C 82.476562 57.355469 82.171875 57.84375 81.984375 58.382812 L 76.933594 73.035156 C 76.800781 73.382812 76.886719 73.773438 77.152344 74.035156 L 77.933594 74.8125 C 78.191406 75.078125 78.585938 75.164062 78.933594 75.03125 L 93.585938 69.980469 C 94.125 69.796875 94.613281 69.492188 95.011719 69.089844 L 131.933594 32.167969 C 133.234375 30.867188 133.433594 28.820312 132.378906 27.308594 C 131.652344 26.265625 130.523438 24.914062 128.785156 23.179688 C 127.074219 21.464844 125.738281 20.34375 124.699219 19.617188 C 124.027344 19.148438 123.257812 18.917969 122.492188 18.917969 Z M 122.492188 18.917969"/><path fill="#472B29" d="M 79.769531 66.800781 L 80.242188 66.328125 L 85.410156 71.496094 L 84.9375 71.96875 Z M 79.769531 66.800781"/><path fill="#472B29" d="M 90.589844 57.328125 L 113.953125 33.96875 L 114.421875 34.4375 L 91.0625 57.800781 Z M 90.589844 57.328125"/><path fill="#472B29" d="M 90.828125 57.230469 C 90.738281 57.230469 90.65625 57.265625 90.59375 57.328125 C 90.527344 57.394531 90.496094 57.472656 90.496094 57.566406 C 90.496094 57.65625 90.527344 57.734375 90.59375 57.800781 C 90.65625 57.867188 90.738281 57.898438 90.828125 57.898438 C 90.921875 57.898438 91 57.867188 91.0625 57.800781 C 91.128906 57.734375 91.160156 57.65625 91.160156 57.566406 C 91.160156 57.472656 91.128906 57.394531 91.0625 57.328125 C 91 57.265625 90.921875 57.230469 90.828125 57.230469 Z M 90.828125 57.230469"/><path fill="#472B29" d="M 96.863281 58.207031 L 117.527344 37.542969 L 117.996094 38.015625 L 97.335938 58.679688 Z M 96.863281 58.207031"/><path fill="#472B29" d="M 97.097656 58.109375 C 97.003906 58.109375 96.925781 58.140625 96.863281 58.207031 C 96.796875 58.269531 96.765625 58.347656 96.765625 58.441406 C 96.765625 58.53125 96.796875 58.613281 96.863281 58.675781 C 96.925781 58.742188 97.003906 58.773438 97.097656 58.773438 C 97.191406 58.773438 97.269531 58.742188 97.332031 58.675781 C 97.398438 58.613281 97.429688 58.53125 97.429688 58.441406 C 97.429688 58.347656 97.398438 58.269531 97.332031 58.207031 C 97.269531 58.140625 97.191406 58.109375 97.097656 58.109375 Z M 97.097656 58.109375"/></svg>