<svg xmlns="http://www.w3.org/2000/svg" width="150" viewBox="0 0 150 150" height="150" version="1.0"><defs><clipPath id="a"><path d="M 25 17 L 125.316406 17 L 125.316406 150 L 25 150 Z M 25 17"/></clipPath></defs><g clip-path="url(#a)"><path fill="#DEDDDD" d="M 125.066406 147.164062 C 125.066406 148.730469 123.800781 150 122.234375 150 L 27.84375 150 C 26.277344 150 25.003906 148.730469 25.003906 147.164062 L 25.003906 20.082031 C 25.003906 18.511719 26.277344 17.25 27.84375 17.25 L 122.234375 17.25 C 123.800781 17.25 125.066406 18.511719 125.066406 20.082031 L 125.066406 147.164062"/></g><path fill="#C8C7C7" d="M 58.269531 56.433594 C 58.269531 57.210938 57.632812 57.847656 56.847656 57.847656 L 41.082031 57.847656 C 40.296875 57.847656 39.660156 57.210938 39.660156 56.433594 L 39.660156 41.625 C 39.660156 40.84375 40.296875 40.210938 41.082031 40.210938 L 56.847656 40.210938 C 57.632812 40.210938 58.269531 40.84375 58.269531 41.625 L 58.269531 56.433594"/><path fill="#F9AD30" d="M 108.632812 45.972656 L 73.40625 45.972656 C 72.421875 45.972656 71.621094 45.179688 71.621094 44.195312 C 71.621094 43.214844 72.421875 42.417969 73.40625 42.417969 L 108.632812 42.417969 C 109.617188 42.417969 110.417969 43.214844 110.417969 44.195312 C 110.417969 45.179688 109.617188 45.972656 108.632812 45.972656"/><path fill="#F9AD30" d="M 108.632812 55.640625 L 73.40625 55.640625 C 72.421875 55.640625 71.621094 54.84375 71.621094 53.859375 C 71.621094 52.878906 72.421875 52.085938 73.40625 52.085938 L 108.632812 52.085938 C 109.617188 52.085938 110.417969 52.878906 110.417969 53.859375 C 110.417969 54.84375 109.617188 55.640625 108.632812 55.640625"/><path fill="#C8C7C7" d="M 58.269531 93.105469 C 58.269531 93.886719 57.632812 94.519531 56.847656 94.519531 L 41.082031 94.519531 C 40.296875 94.519531 39.660156 93.886719 39.660156 93.105469 L 39.660156 78.296875 C 39.660156 77.519531 40.296875 76.882812 41.082031 76.882812 L 56.847656 76.882812 C 57.632812 76.882812 58.269531 77.519531 58.269531 78.296875 L 58.269531 93.105469"/><path fill="#F9AD30" d="M 108.632812 82.644531 L 73.40625 82.644531 C 72.421875 82.644531 71.621094 81.847656 71.621094 80.871094 C 71.621094 79.886719 72.421875 79.089844 73.40625 79.089844 L 108.632812 79.089844 C 109.617188 79.089844 110.417969 79.886719 110.417969 80.871094 C 110.417969 81.847656 109.617188 82.644531 108.632812 82.644531"/><path fill="#F9AD30" d="M 108.632812 92.308594 L 73.40625 92.308594 C 72.421875 92.308594 71.621094 91.511719 71.621094 90.535156 C 71.621094 89.550781 72.421875 88.753906 73.40625 88.753906 L 108.632812 88.753906 C 109.617188 88.753906 110.417969 89.550781 110.417969 90.535156 C 110.417969 91.511719 109.617188 92.308594 108.632812 92.308594"/><path fill="#C8C7C7" d="M 58.269531 129.773438 C 58.269531 130.558594 57.632812 131.1875 56.847656 131.1875 L 41.082031 131.1875 C 40.296875 131.1875 39.660156 130.558594 39.660156 129.773438 L 39.660156 114.96875 C 39.660156 114.183594 40.296875 113.550781 41.082031 113.550781 L 56.847656 113.550781 C 57.632812 113.550781 58.269531 114.183594 58.269531 114.96875 L 58.269531 129.773438"/><path fill="#F9AD30" d="M 108.632812 119.316406 L 73.40625 119.316406 C 72.421875 119.316406 71.621094 118.519531 71.621094 117.535156 C 71.621094 116.550781 72.421875 115.761719 73.40625 115.761719 L 108.632812 115.761719 C 109.617188 115.761719 110.417969 116.554688 110.417969 117.535156 C 110.417969 118.519531 109.617188 119.316406 108.632812 119.316406"/><path fill="#F9AD30" d="M 108.632812 128.980469 L 73.40625 128.980469 C 72.421875 128.980469 71.621094 128.183594 71.621094 127.207031 C 71.621094 126.222656 72.421875 125.425781 73.40625 125.425781 L 108.632812 125.425781 C 109.617188 125.425781 110.417969 126.222656 110.417969 127.207031 C 110.417969 128.183594 109.617188 128.980469 108.632812 128.980469"/><path fill="#C8C7C7" d="M 74.082031 17.25 C 71.015625 17.25 68.53125 14.761719 68.53125 11.703125 C 68.53125 8.640625 71.015625 6.15625 74.082031 6.15625 C 77.152344 6.15625 79.636719 8.640625 79.636719 11.703125 C 79.636719 14.761719 77.152344 17.25 74.082031 17.25 Z M 92.269531 12.984375 L 85.886719 12.984375 C 85.921875 12.609375 85.945312 12.230469 85.945312 11.847656 C 85.945312 5.304688 80.632812 0.00390625 74.082031 0.00390625 C 67.539062 0.00390625 62.226562 5.304688 62.226562 11.847656 C 62.226562 12.230469 62.246094 12.609375 62.28125 12.984375 L 55.90625 12.984375 C 54.445312 12.984375 53.269531 14.160156 53.269531 15.617188 L 53.269531 26.144531 C 53.269531 27.597656 54.445312 28.769531 55.90625 28.769531 L 92.269531 28.769531 C 93.722656 28.769531 94.902344 27.597656 94.902344 26.144531 L 94.902344 15.617188 C 94.902344 14.160156 93.722656 12.984375 92.269531 12.984375"/><path stroke-linecap="round" transform="matrix(.06004 0 0 -.05995 -52.598 202.458)" fill="none" stroke-linejoin="round" d="M 1637.115898 2571.082569 L 1708.817615 2504.688347 L 1915.399242 2715.729453" stroke="#339C50" stroke-width="40" stroke-miterlimit="10"/><path stroke-linecap="round" transform="matrix(.06004 0 0 -.05995 -52.598 202.458)" fill="none" stroke-linejoin="round" d="M 1637.115898 1959.395659 L 1708.817615 1893.001436 L 1915.399242 2103.977386" stroke="#339C50" stroke-width="40" stroke-miterlimit="10"/><path stroke-linecap="round" transform="matrix(.06004 0 0 -.05995 -52.598 202.458)" fill="none" stroke-linejoin="round" d="M 1637.115898 1377.42 L 1708.817615 1310.895465 L 1915.399242 1522.001728" stroke="#339C50" stroke-width="40" stroke-miterlimit="10"/></svg>