<svg xmlns="http://www.w3.org/2000/svg" width="150" viewBox="0 0 150 150" height="150" version="1.0"><defs><clipPath id="a"><path d="M 13.851562 0 L 135.9375 0 L 135.9375 150 L 13.851562 150 Z M 13.851562 0"/></clipPath><clipPath id="b"><path d="M 25 18.375 L 135.9375 18.375 L 135.9375 140.964844 L 25 140.964844 Z M 25 18.375"/></clipPath></defs><g clip-path="url(#a)"><path fill="#7EC0A4" d="M 111.671875 147.355469 C 111.507812 147.398438 111.664062 147.378906 112.261719 147.339844 Z M 62.066406 6.589844 C 62.066406 5.148438 63.238281 3.976562 64.679688 3.976562 C 66.117188 3.976562 67.289062 5.148438 67.289062 6.589844 C 67.289062 8.03125 66.117188 9.207031 64.679688 9.207031 C 63.238281 9.207031 62.066406 8.03125 62.066406 6.589844 Z M 135.9375 116.796875 C 130.878906 113.75 126.246094 105.390625 122.171875 94.757812 L 119.144531 33.125 C 119.304688 33.15625 119.46875 33.175781 119.628906 33.207031 C 119.601562 33.042969 119.632812 32.800781 119.539062 32.734375 C 119.425781 32.660156 119.289062 32.613281 119.117188 32.5625 L 118.839844 26.902344 C 118.839844 22.585938 112.363281 14.242188 108.339844 14.242188 L 92.933594 15.261719 C 92.109375 11.957031 89.109375 9.515625 85.601562 9.515625 C 85.425781 9.515625 85.246094 9.523438 85.0625 9.539062 L 75.328125 10.222656 C 75.046875 9.140625 74.640625 7.878906 74.070312 6.617188 C 72.113281 2.289062 69.125 0 65.429688 0 C 65.050781 0 64.660156 0.0234375 64.265625 0.0703125 C 60.179688 0.558594 56.734375 2.980469 54.304688 7.070312 C 53.21875 8.898438 52.554688 10.695312 52.199219 11.851562 L 43.976562 12.433594 C 40.34375 12.691406 37.484375 15.488281 37.011719 18.96875 L 23.476562 19.867188 C 19.449219 19.867188 13.855469 26.902344 13.855469 33 L 20.414062 139.425781 C 20.414062 143.742188 21.597656 150.273438 33.519531 150.003906 L 111.671875 147.355469 C 112.558594 147.125 123.09375 144.992188 124.085938 133.796875 L 123.402344 119.8125 L 135.9375 116.796875"/></g><g clip-path="url(#b)"><path fill="#FAF3E0" d="M 108.078125 86.796875 C 108.058594 86.671875 107.9375 86.582031 107.8125 86.601562 L 73.644531 91.734375 C 73.519531 91.753906 73.429688 91.875 73.449219 92 C 73.46875 92.117188 73.566406 92.199219 73.679688 92.199219 L 73.714844 92.199219 L 107.882812 87.066406 C 108.007812 87.046875 108.097656 86.929688 108.078125 86.796875 Z M 97.523438 93.121094 C 97.503906 92.996094 97.382812 92.90625 97.257812 92.929688 L 74.863281 96.523438 C 74.738281 96.542969 74.648438 96.664062 74.671875 96.789062 C 74.6875 96.90625 74.789062 96.988281 74.898438 96.988281 C 74.910156 96.988281 74.925781 96.988281 74.9375 96.984375 L 97.328125 93.390625 C 97.457031 93.371094 97.546875 93.25 97.523438 93.121094 Z M 70.671875 78.144531 L 93.066406 74.550781 C 93.191406 74.53125 93.277344 74.410156 93.257812 74.28125 C 93.238281 74.152344 93.117188 74.066406 92.988281 74.089844 L 70.597656 77.679688 C 70.46875 77.703125 70.382812 77.824219 70.402344 77.949219 C 70.421875 78.0625 70.519531 78.148438 70.636719 78.148438 C 70.648438 78.148438 70.660156 78.144531 70.671875 78.144531 Z M 68.992188 73.300781 L 100.238281 68.730469 C 100.367188 68.710938 100.453125 68.59375 100.4375 68.464844 C 100.417969 68.339844 100.296875 68.246094 100.171875 68.265625 L 68.925781 72.839844 C 68.796875 72.855469 68.707031 72.972656 68.726562 73.101562 C 68.742188 73.222656 68.84375 73.300781 68.957031 73.300781 Z M 67.605469 68.730469 L 101.769531 63.597656 C 101.898438 63.578125 101.988281 63.457031 101.96875 63.332031 C 101.949219 63.203125 101.832031 63.117188 101.703125 63.132812 L 67.539062 68.265625 C 67.40625 68.285156 67.320312 68.402344 67.339844 68.535156 C 67.359375 68.652344 67.460938 68.730469 67.570312 68.730469 C 67.582031 68.730469 67.59375 68.730469 67.605469 68.730469 Z M 65.628906 99.871094 C 65.199219 95.261719 61.121094 91.875 56.519531 92.3125 C 51.917969 92.742188 48.539062 96.828125 48.96875 101.433594 C 49.402344 106.042969 53.480469 109.429688 58.078125 108.996094 C 62.679688 108.566406 66.0625 104.480469 65.628906 99.871094 Z M 44.492188 85.589844 C 44.492188 85.589844 55.980469 84.113281 59.492188 83.660156 C 63.003906 83.210938 61.277344 80.949219 61.277344 80.949219 L 52.527344 67.695312 C 49.851562 65.230469 48.328125 68.234375 48.328125 68.234375 L 42.761719 82.257812 C 41.5 85.097656 44.492188 85.589844 44.492188 85.589844 Z M 48.363281 59.25 C 50.941406 58.871094 54.039062 54.054688 54.996094 51.363281 C 55.214844 50.742188 55.535156 49.875 55.769531 48.917969 L 64.863281 39.535156 C 64.863281 39.535156 66.691406 37.304688 64.832031 36.023438 C 63.042969 34.796875 61.566406 36.863281 61.566406 36.863281 C 61.566406 36.863281 58.273438 40.382812 55.113281 43.800781 C 54.601562 43.25 53.851562 42.816406 52.785156 42.5625 C 48.597656 41.59375 46.335938 46.90625 46.335938 46.90625 C 46.335938 46.90625 42.699219 42.910156 39.386719 44.582031 C 35.835938 46.367188 37.347656 50.445312 39.316406 53.40625 C 39.316406 53.40625 44.125 59.878906 48.363281 59.25 Z M 87.410156 53.003906 L 65.015625 56.601562 C 64.886719 56.617188 64.800781 56.738281 64.824219 56.867188 C 64.839844 56.984375 64.941406 57.0625 65.050781 57.0625 C 65.0625 57.0625 65.078125 57.0625 65.089844 57.0625 L 87.480469 53.46875 C 87.609375 53.445312 87.695312 53.328125 87.675781 53.199219 C 87.65625 53.070312 87.535156 52.984375 87.410156 53.003906 Z M 94.65625 47.648438 C 94.78125 47.628906 94.871094 47.507812 94.855469 47.382812 C 94.832031 47.253906 94.714844 47.167969 94.585938 47.183594 L 63.34375 51.753906 C 63.214844 51.773438 63.125 51.890625 63.144531 52.019531 C 63.164062 52.136719 63.261719 52.21875 63.375 52.21875 C 63.386719 52.21875 63.398438 52.21875 63.410156 52.21875 Z M 61.953125 47.183594 C 61.828125 47.203125 61.742188 47.324219 61.757812 47.453125 C 61.777344 47.566406 61.875 47.652344 61.988281 47.652344 C 62 47.652344 62.015625 47.652344 62.023438 47.648438 L 96.191406 42.515625 C 96.316406 42.5 96.40625 42.375 96.382812 42.246094 C 96.367188 42.121094 96.246094 42.03125 96.121094 42.050781 Z M 135.9375 116.796875 L 123.402344 119.8125 L 117.667969 121.195312 L 106.875 123.789062 L 57.074219 135.78125 C 57.074219 135.78125 36.222656 121.84375 30.011719 59.382812 C 30.007812 59.339844 30 59.296875 30 59.25 C 28.980469 48.945312 28.355469 37.3125 28.292969 24.210938 L 37.804688 23.496094 C 37.898438 23.675781 38 23.851562 38.105469 24.023438 C 38.628906 25.578125 40.273438 28.644531 45.164062 28.667969 C 49.90625 28.691406 69.929688 26.34375 80.628906 25.042969 L 86.128906 24.65625 C 88.140625 24.515625 89.984375 23.59375 91.308594 22.066406 C 92 21.269531 92.507812 20.355469 92.8125 19.375 L 103.875 18.546875 C 103.875 18.546875 103.976562 19.214844 104.175781 20.441406 C 105.21875 26.996094 108.996094 49.511719 114.777344 71.269531 C 116.964844 79.511719 119.445312 87.644531 122.171875 94.757812 C 126.246094 105.390625 130.878906 113.75 135.9375 116.796875 Z M 31.550781 135.78125 L 25.230469 23.039062 L 27.355469 140.703125 L 52.878906 138.203125 C 52.023438 137.300781 51.007812 136.070312 49.832031 134.394531 Z M 82.5625 131.914062 L 113.242188 129.589844 L 113.472656 132.265625 L 68.246094 136.699219 L 82.5625 131.914062"/></g><path fill="#F14975" d="M 49.550781 49.941406 C 50.171875 49.179688 52.601562 46.523438 55.113281 43.804688 C 58.273438 40.382812 61.5625 36.863281 61.5625 36.863281 C 61.5625 36.863281 63.042969 34.800781 64.832031 36.027344 C 66.695312 37.304688 64.863281 39.535156 64.863281 39.535156 L 55.769531 48.921875 L 50.882812 53.96875 C 50.882812 53.96875 48.730469 57.398438 45.617188 55.058594 C 42.507812 52.722656 39.269531 49.761719 39.269531 49.761719 C 39.269531 49.761719 37.5 48.105469 39.28125 46.441406 C 40.816406 45.011719 43.710938 48.058594 43.710938 48.058594 L 47.265625 50.875 C 47.265625 50.875 48.011719 51.835938 49.550781 49.941406 Z M 117.667969 121.191406 L 118.132812 129.21875 L 113.242188 129.589844 L 82.5625 131.914062 L 106.875 123.792969 Z M 31.550781 135.78125 L 25.230469 23.039062 L 37.421875 22.636719 C 37.53125 22.933594 37.660156 23.222656 37.804688 23.496094 L 28.292969 24.210938 C 28.355469 37.3125 28.980469 48.941406 30 59.25 C 30 59.25 34.128906 105.035156 43.363281 123.300781 C 45.890625 128.292969 48.046875 131.855469 49.832031 134.394531 Z M 111.828125 20.417969 C 111.527344 20.605469 111.292969 20.554688 110.988281 20.21875 L 104.171875 20.441406 C 105.21875 26.996094 108.992188 49.515625 114.773438 71.269531 Z M 44.492188 85.589844 C 44.492188 85.589844 41.5 85.097656 42.761719 82.261719 L 48.328125 68.234375 C 48.328125 68.234375 49.851562 65.230469 52.523438 67.695312 L 61.277344 80.949219 C 61.277344 80.949219 63.007812 83.210938 59.492188 83.660156 C 55.976562 84.113281 44.492188 85.589844 44.492188 85.589844"/><path fill="#F7CD34" d="M 37.429688 20.492188 C 37.152344 16.582031 40.105469 13.175781 44.011719 12.898438 L 85.097656 10.003906 C 85.265625 9.992188 85.433594 9.984375 85.601562 9.984375 C 89.308594 9.984375 92.414062 12.890625 92.675781 16.597656 C 92.808594 18.492188 92.199219 20.324219 90.953125 21.757812 C 89.710938 23.191406 87.984375 24.054688 86.09375 24.1875 L 45.007812 27.085938 C 44.839844 27.097656 44.667969 27.105469 44.503906 27.105469 C 40.796875 27.105469 37.6875 24.199219 37.429688 20.492188 Z M 39.320312 53.402344 C 37.347656 50.445312 35.835938 46.367188 39.382812 44.582031 C 42.699219 42.910156 46.335938 46.90625 46.335938 46.90625 C 46.335938 46.90625 48.597656 41.59375 52.785156 42.566406 C 53.855469 42.8125 54.601562 43.25 55.113281 43.804688 C 52.601562 46.523438 50.171875 49.179688 49.550781 49.941406 C 48.011719 51.835938 47.265625 50.875 47.265625 50.875 L 43.710938 48.058594 C 43.710938 48.058594 40.816406 45.011719 39.28125 46.441406 C 37.5 48.105469 39.269531 49.761719 39.269531 49.761719 C 39.269531 49.761719 42.507812 52.722656 45.617188 55.058594 C 48.730469 57.398438 50.882812 53.96875 50.882812 53.96875 L 55.769531 48.921875 C 55.535156 49.875 55.214844 50.742188 54.996094 51.359375 C 54.039062 54.054688 50.941406 58.871094 48.363281 59.25 C 44.125 59.878906 39.320312 53.402344 39.320312 53.402344 Z M 64.679688 9.671875 C 62.980469 9.671875 61.597656 8.289062 61.597656 6.589844 C 61.597656 4.890625 62.980469 3.507812 64.679688 3.507812 C 66.375 3.507812 67.757812 4.890625 67.757812 6.589844 C 67.757812 8.289062 66.375 9.671875 64.679688 9.671875 Z M 73.636719 6.800781 C 71.734375 2.601562 68.976562 0.46875 65.429688 0.46875 C 65.066406 0.46875 64.695312 0.492188 64.320312 0.535156 C 59.347656 1.128906 56.347656 4.546875 54.707031 7.308594 C 53.691406 9.015625 53.058594 10.6875 52.699219 11.816406 L 74.855469 10.257812 C 74.578125 9.214844 74.183594 8.007812 73.636719 6.800781"/><path fill="#1A1E2D" d="M 90.953125 21.757812 C 89.710938 23.195312 87.984375 24.054688 86.09375 24.191406 L 45.007812 27.085938 C 44.839844 27.097656 44.667969 27.105469 44.503906 27.105469 C 40.792969 27.105469 37.6875 24.199219 37.425781 20.492188 C 37.152344 16.582031 40.105469 13.175781 44.011719 12.902344 L 85.097656 10.003906 C 85.265625 9.992188 85.4375 9.984375 85.601562 9.984375 C 89.308594 9.984375 92.414062 12.890625 92.675781 16.597656 C 92.808594 18.492188 92.199219 20.324219 90.953125 21.757812 Z M 54.707031 7.308594 C 56.347656 4.546875 59.347656 1.128906 64.320312 0.535156 C 64.695312 0.492188 65.066406 0.46875 65.429688 0.46875 C 68.976562 0.46875 71.734375 2.601562 73.636719 6.800781 C 74.183594 8.007812 74.578125 9.214844 74.855469 10.257812 L 52.699219 11.816406 C 53.058594 10.6875 53.691406 9.015625 54.707031 7.308594 Z M 93.144531 16.5625 C 93.109375 16.117188 93.039062 15.683594 92.933594 15.261719 C 92.109375 11.957031 89.109375 9.515625 85.601562 9.515625 C 85.425781 9.515625 85.246094 9.523438 85.0625 9.539062 L 75.328125 10.222656 C 75.046875 9.140625 74.640625 7.878906 74.070312 6.617188 C 72.113281 2.289062 69.125 0 65.429688 0 C 65.050781 0 64.660156 0.0234375 64.265625 0.0703125 C 60.179688 0.558594 56.734375 2.980469 54.304688 7.070312 C 53.21875 8.898438 52.554688 10.695312 52.199219 11.851562 L 43.976562 12.433594 C 40.34375 12.691406 37.484375 15.488281 37.011719 18.96875 C 36.941406 19.476562 36.925781 20 36.960938 20.527344 C 37.011719 21.265625 37.171875 21.972656 37.421875 22.640625 C 37.527344 22.933594 37.660156 23.222656 37.804688 23.496094 C 37.898438 23.675781 38 23.851562 38.105469 24.023438 C 38.628906 25.578125 40.273438 28.644531 45.164062 28.667969 C 49.90625 28.691406 69.929688 26.34375 80.628906 25.042969 L 86.128906 24.65625 C 88.140625 24.515625 89.984375 23.59375 91.308594 22.066406 C 92 21.269531 92.507812 20.355469 92.8125 19.375 C 93.09375 18.480469 93.210938 17.527344 93.144531 16.5625 Z M 101.449219 15.742188 C 101.433594 15.667969 101.417969 15.597656 101.40625 15.523438 C 101.527344 15.496094 101.648438 15.46875 101.773438 15.441406 C 101.78125 15.523438 101.816406 15.667969 101.796875 15.671875 C 101.6875 15.714844 101.566406 15.722656 101.449219 15.742188 Z M 21.132812 24.925781 C 21.125 24.859375 21.242188 24.777344 21.304688 24.703125 C 21.378906 24.769531 21.496094 24.828125 21.507812 24.902344 C 21.523438 24.976562 21.429688 25.066406 21.359375 25.195312 C 21.25 25.078125 21.136719 25.007812 21.132812 24.925781 Z M 23.84375 35.960938 C 23.753906 35.957031 23.671875 35.878906 23.527344 35.804688 C 23.644531 35.71875 23.722656 35.625 23.777344 35.636719 C 23.867188 35.65625 23.941406 35.742188 24.023438 35.796875 C 23.964844 35.855469 23.902344 35.960938 23.84375 35.960938 Z M 53.632812 146.101562 C 53.703125 146.101562 53.78125 146.207031 53.851562 146.265625 C 53.78125 146.335938 53.710938 146.40625 53.613281 146.507812 C 53.527344 146.40625 53.460938 146.335938 53.398438 146.261719 C 53.476562 146.203125 53.554688 146.101562 53.632812 146.101562 Z M 93.164062 139.675781 C 93.101562 139.550781 93.003906 139.453125 93.023438 139.390625 C 93.050781 139.308594 93.167969 139.253906 93.242188 139.1875 C 93.308594 139.265625 93.425781 139.351562 93.421875 139.429688 C 93.417969 139.5 93.285156 139.566406 93.164062 139.675781 Z M 118.785156 37.066406 C 118.785156 36.988281 118.773438 36.84375 118.785156 36.839844 C 118.917969 36.820312 119.058594 36.820312 119.195312 36.816406 C 119.199219 36.894531 119.207031 36.972656 119.210938 37.050781 C 119.070312 37.054688 118.929688 37.0625 118.785156 37.066406 Z M 114.320312 31.816406 C 114.1875 31.90625 114.101562 31.964844 114.019531 32.023438 C 113.964844 31.9375 113.882812 31.855469 113.871094 31.761719 C 113.867188 31.71875 114.003906 31.605469 114.058594 31.613281 C 114.140625 31.632812 114.210938 31.726562 114.320312 31.816406 Z M 21.496094 77.714844 C 21.363281 77.71875 21.226562 77.722656 21.09375 77.726562 C 21.09375 77.648438 21.089844 77.570312 21.089844 77.492188 C 21.226562 77.496094 21.359375 77.5 21.496094 77.503906 C 21.496094 77.574219 21.496094 77.644531 21.496094 77.714844 Z M 18.210938 33.46875 C 18.203125 33.40625 18.191406 33.34375 18.183594 33.28125 C 18.347656 33.257812 18.511719 33.234375 18.675781 33.210938 C 18.683594 33.273438 18.695312 33.339844 18.703125 33.40625 C 18.539062 33.425781 18.375 33.449219 18.210938 33.46875 Z M 99.898438 16.019531 C 99.75 16.023438 99.597656 16.03125 99.449219 16.035156 C 99.453125 15.953125 99.460938 15.875 99.46875 15.792969 C 99.613281 15.804688 99.757812 15.8125 99.902344 15.824219 C 99.902344 15.890625 99.902344 15.957031 99.898438 16.019531 Z M 61.273438 140.65625 C 61.273438 140.730469 61.152344 140.808594 61.0625 140.914062 C 60.972656 140.800781 60.863281 140.714844 60.863281 140.636719 C 60.871094 140.566406 61.007812 140.449219 61.082031 140.453125 C 61.152344 140.453125 61.273438 140.582031 61.273438 140.65625 Z M 26.082031 109.058594 C 26.082031 109.113281 26.085938 109.164062 26.085938 109.21875 C 25.917969 109.226562 25.746094 109.234375 25.578125 109.246094 C 25.578125 109.175781 25.578125 109.113281 25.574219 109.042969 C 25.746094 109.050781 25.914062 109.050781 26.082031 109.058594 Z M 64.875 146.515625 C 64.933594 146.59375 65.039062 146.675781 65.042969 146.753906 C 65.042969 146.832031 64.933594 146.90625 64.832031 147.03125 C 64.761719 146.886719 64.675781 146.792969 64.683594 146.710938 C 64.695312 146.640625 64.804688 146.582031 64.875 146.515625 Z M 36.761719 140.652344 C 36.8125 140.828125 36.863281 141.003906 36.914062 141.179688 C 36.835938 141.199219 36.761719 141.214844 36.6875 141.234375 C 36.648438 141.054688 36.613281 140.875 36.574219 140.695312 C 36.636719 140.679688 36.699219 140.664062 36.761719 140.652344 Z M 51.6875 147.746094 C 51.742188 147.769531 51.796875 147.792969 51.851562 147.8125 C 51.777344 148.003906 51.703125 148.191406 51.628906 148.378906 C 51.570312 148.355469 51.511719 148.332031 51.453125 148.308594 C 51.53125 148.121094 51.609375 147.933594 51.6875 147.746094 Z M 99.769531 145.753906 C 99.808594 145.917969 99.851562 146.082031 99.890625 146.246094 C 99.808594 146.257812 99.726562 146.265625 99.644531 146.277344 C 99.597656 146.128906 99.546875 145.984375 99.5 145.835938 C 99.589844 145.808594 99.679688 145.78125 99.769531 145.753906 Z M 97.453125 140.625 C 97.503906 140.632812 97.550781 140.640625 97.597656 140.648438 C 97.578125 140.851562 97.558594 141.054688 97.539062 141.253906 C 97.46875 141.242188 97.394531 141.230469 97.324219 141.21875 C 97.367188 141.023438 97.410156 140.824219 97.453125 140.625 Z M 16.230469 61.140625 C 16.289062 61.160156 16.347656 61.179688 16.40625 61.199219 C 16.355469 61.378906 16.300781 61.554688 16.25 61.730469 C 16.171875 61.703125 16.09375 61.675781 16.015625 61.648438 C 16.089844 61.480469 16.160156 61.308594 16.230469 61.140625 Z M 76.300781 141.226562 C 76.457031 141.261719 76.609375 141.292969 76.761719 141.335938 C 76.765625 141.339844 76.734375 141.515625 76.726562 141.515625 C 76.570312 141.496094 76.414062 141.46875 76.257812 141.445312 C 76.269531 141.371094 76.285156 141.300781 76.300781 141.226562 Z M 70.796875 141.433594 C 70.851562 141.625 70.902344 141.8125 70.953125 142.003906 C 70.863281 142.019531 70.773438 142.035156 70.679688 142.050781 C 70.644531 141.863281 70.613281 141.671875 70.574219 141.480469 C 70.648438 141.464844 70.722656 141.449219 70.796875 141.433594 Z M 121.378906 122.628906 C 121.621094 122.632812 121.859375 122.640625 122.101562 122.644531 C 122.085938 122.6875 122.070312 122.734375 122.054688 122.777344 C 121.828125 122.769531 121.601562 122.765625 121.375 122.761719 C 121.375 122.714844 121.378906 122.671875 121.378906 122.628906 Z M 119.570312 62.371094 C 119.496094 62.355469 119.421875 62.335938 119.347656 62.320312 C 119.40625 62.117188 119.460938 61.910156 119.515625 61.707031 C 119.578125 61.722656 119.636719 61.734375 119.699219 61.75 C 119.65625 61.957031 119.613281 62.164062 119.570312 62.371094 Z M 22.058594 87 C 21.878906 86.996094 21.695312 86.992188 21.511719 86.988281 C 21.515625 86.945312 21.515625 86.902344 21.515625 86.859375 C 21.707031 86.867188 21.894531 86.871094 22.085938 86.875 C 22.078125 86.917969 22.066406 86.957031 22.058594 87 Z M 57.15625 140.773438 C 57.160156 140.839844 57.164062 140.902344 57.167969 140.96875 C 56.992188 140.984375 56.816406 141.003906 56.640625 141.023438 C 56.632812 140.949219 56.625 140.875 56.621094 140.800781 C 56.800781 140.789062 56.976562 140.78125 57.15625 140.773438 Z M 116.863281 65.019531 C 117.03125 65.054688 117.199219 65.089844 117.371094 65.125 C 117.359375 65.191406 117.351562 65.253906 117.34375 65.316406 C 117.164062 65.300781 116.988281 65.285156 116.816406 65.269531 C 116.832031 65.1875 116.847656 65.101562 116.863281 65.019531 Z M 25.628906 107.507812 C 25.789062 107.511719 25.953125 107.511719 26.117188 107.519531 C 26.113281 107.597656 26.109375 107.675781 26.105469 107.753906 C 25.941406 107.734375 25.777344 107.714844 25.613281 107.695312 C 25.621094 107.632812 25.625 107.570312 25.628906 107.507812 Z M 92.128906 142.804688 C 92.277344 142.816406 92.421875 142.832031 92.570312 142.847656 C 92.558594 142.929688 92.550781 143.011719 92.539062 143.09375 C 92.394531 143.066406 92.246094 143.039062 92.101562 143.011719 C 92.109375 142.941406 92.121094 142.875 92.128906 142.804688 Z M 82.503906 145.398438 C 82.496094 145.5 82.402344 145.59375 82.238281 145.875 C 82.148438 145.664062 82.058594 145.554688 82.074219 145.472656 C 82.097656 145.375 82.203125 145.273438 82.296875 145.222656 C 82.332031 145.207031 82.507812 145.339844 82.503906 145.398438 Z M 74.207031 138.816406 C 74.222656 138.839844 74.058594 139.039062 74.027344 139.027344 C 73.90625 138.984375 73.804688 138.882812 73.535156 138.683594 C 73.722656 138.609375 73.839844 138.511719 73.910156 138.542969 C 74.03125 138.589844 74.132812 138.707031 74.207031 138.816406 Z M 23.136719 106.4375 C 22.957031 106.433594 22.777344 106.425781 22.597656 106.421875 C 22.597656 106.371094 22.597656 106.320312 22.601562 106.269531 C 22.777344 106.273438 22.957031 106.277344 23.136719 106.28125 C 23.136719 106.332031 23.136719 106.386719 23.136719 106.4375 Z M 25.433594 21.609375 C 25.347656 21.59375 25.261719 21.574219 25.175781 21.554688 C 25.203125 21.410156 25.234375 21.261719 25.261719 21.117188 C 25.339844 21.132812 25.492188 21.148438 25.488281 21.164062 C 25.484375 21.3125 25.457031 21.460938 25.433594 21.609375 Z M 122.441406 123.800781 C 122.636719 123.796875 122.828125 123.789062 123.023438 123.785156 C 123.023438 123.867188 123.023438 123.949219 123.023438 124.03125 C 122.828125 124.023438 122.636719 124.019531 122.445312 124.015625 C 122.441406 123.945312 122.441406 123.871094 122.441406 123.800781 Z M 17.5 32.289062 C 17.363281 32.300781 17.222656 32.3125 17.085938 32.324219 C 17.074219 32.257812 17.0625 32.191406 17.050781 32.125 C 17.191406 32.085938 17.328125 32.046875 17.46875 32.007812 C 17.480469 32.101562 17.488281 32.195312 17.5 32.289062 Z M 21.335938 120.519531 C 21.40625 120.503906 21.503906 120.609375 21.589844 120.660156 C 21.5 120.757812 21.417969 120.882812 21.308594 120.953125 C 21.273438 120.972656 21.152344 120.847656 21.015625 120.753906 C 21.148438 120.648438 21.234375 120.542969 21.335938 120.519531 Z M 20.921875 80.363281 C 20.996094 80.339844 21.070312 80.316406 21.148438 80.292969 C 21.203125 80.460938 21.261719 80.625 21.320312 80.792969 C 21.230469 80.816406 21.136719 80.839844 21.046875 80.863281 C 21.003906 80.695312 20.960938 80.527344 20.921875 80.363281 Z M 24.316406 121.050781 C 24.542969 121.054688 24.769531 121.0625 25 121.066406 C 24.996094 121.105469 24.996094 121.148438 24.996094 121.191406 C 24.769531 121.183594 24.542969 121.179688 24.316406 121.171875 C 24.316406 121.132812 24.316406 121.089844 24.316406 121.050781 Z M 49.199219 147.910156 C 49.289062 148.113281 49.375 148.316406 49.464844 148.519531 C 49.390625 148.550781 49.3125 148.578125 49.238281 148.609375 C 49.15625 148.40625 49.074219 148.199219 48.992188 147.996094 C 49.0625 147.96875 49.128906 147.941406 49.199219 147.910156 Z M 21.433594 101.792969 C 21.253906 101.796875 21.078125 101.800781 20.902344 101.804688 C 20.902344 101.71875 20.902344 101.636719 20.90625 101.550781 C 21.082031 101.554688 21.261719 101.558594 21.441406 101.566406 C 21.4375 101.640625 21.433594 101.71875 21.433594 101.792969 Z M 110.832031 17.113281 C 110.824219 17.039062 110.816406 16.964844 110.8125 16.890625 C 111.042969 16.863281 111.277344 16.835938 111.507812 16.808594 C 111.519531 16.890625 111.527344 16.972656 111.535156 17.054688 C 111.300781 17.074219 111.066406 17.09375 110.832031 17.113281 Z M 22.878906 114.890625 C 22.972656 114.882812 23.070312 114.875 23.164062 114.863281 C 23.160156 115.035156 23.171875 115.207031 23.140625 115.375 C 23.136719 115.414062 23.003906 115.433594 22.929688 115.464844 C 22.910156 115.273438 22.894531 115.082031 22.878906 114.890625 Z M 94.464844 138.523438 C 94.273438 138.492188 94.082031 138.460938 93.890625 138.429688 C 93.910156 138.335938 93.929688 138.238281 93.949219 138.144531 C 94.140625 138.1875 94.328125 138.234375 94.519531 138.277344 C 94.5 138.359375 94.484375 138.441406 94.464844 138.523438 Z M 119.078125 72.539062 C 119.320312 72.519531 119.5625 72.503906 119.804688 72.484375 C 119.816406 72.566406 119.824219 72.648438 119.835938 72.734375 C 119.589844 72.753906 119.34375 72.773438 119.097656 72.792969 C 119.09375 72.707031 119.085938 72.625 119.078125 72.539062 Z M 22.570312 31.980469 C 22.554688 31.976562 22.542969 31.839844 22.554688 31.839844 C 22.714844 31.789062 22.878906 31.742188 23.046875 31.71875 C 23.125 31.710938 23.214844 31.757812 23.460938 31.816406 C 23.246094 31.941406 23.167969 32.027344 23.085938 32.03125 C 22.914062 32.039062 22.738281 32.007812 22.570312 31.980469 Z M 16.667969 47.503906 C 16.667969 47.585938 16.667969 47.671875 16.671875 47.757812 C 16.441406 47.75 16.214844 47.746094 15.988281 47.742188 C 15.984375 47.679688 15.984375 47.621094 15.980469 47.558594 C 16.210938 47.539062 16.4375 47.519531 16.667969 47.503906 Z M 24.25 122.460938 C 24.261719 122.550781 24.277344 122.640625 24.289062 122.730469 C 24.023438 122.761719 23.753906 122.792969 23.484375 122.8125 C 23.480469 122.8125 23.453125 122.589844 23.457031 122.589844 C 23.71875 122.539062 23.984375 122.5 24.25 122.460938 Z M 24.359375 100.488281 C 24.632812 100.492188 24.902344 100.5 25.171875 100.507812 C 25.171875 100.554688 25.171875 100.605469 25.171875 100.652344 C 24.898438 100.648438 24.628906 100.640625 24.359375 100.632812 C 24.359375 100.585938 24.359375 100.535156 24.359375 100.488281 Z M 90.738281 140.339844 C 90.746094 140.398438 90.753906 140.457031 90.761719 140.511719 C 90.746094 140.542969 90.730469 140.59375 90.710938 140.597656 C 90.46875 140.632812 90.230469 140.660156 89.988281 140.679688 C 89.984375 140.679688 89.957031 140.496094 89.964844 140.496094 C 90.222656 140.4375 90.480469 140.390625 90.738281 140.339844 Z M 43.382812 144.332031 C 43.6875 144.339844 43.96875 144.347656 44.304688 144.355469 C 43.929688 144.761719 43.558594 144.75 43.382812 144.332031 Z M 113.75 33.285156 C 114.035156 33.363281 114.320312 33.4375 114.605469 33.515625 C 114.59375 33.589844 114.578125 33.664062 114.566406 33.738281 C 114.199219 33.949219 113.976562 33.617188 113.695312 33.5 C 113.710938 33.429688 113.730469 33.355469 113.75 33.285156 Z M 19.671875 113.636719 C 19.6875 113.871094 19.699219 114.101562 19.714844 114.335938 C 19.628906 114.347656 19.546875 114.359375 19.460938 114.371094 C 19.40625 114.160156 19.351562 113.949219 19.292969 113.738281 C 19.421875 113.703125 19.546875 113.671875 19.671875 113.636719 Z M 19.355469 83.398438 C 19.214844 83.40625 19.078125 83.417969 18.9375 83.429688 C 18.933594 83.234375 18.921875 83.039062 18.914062 82.84375 C 19.011719 82.832031 19.109375 82.820312 19.210938 82.804688 C 19.257812 83.003906 19.304688 83.199219 19.355469 83.398438 Z M 68.53125 144.589844 C 68.8125 144.714844 69.097656 144.839844 69.382812 144.964844 C 69.355469 145.023438 69.328125 145.082031 69.296875 145.140625 C 68.96875 145.101562 68.605469 145.132812 68.4375 144.777344 C 68.46875 144.714844 68.5 144.652344 68.53125 144.589844 Z M 19.546875 78.558594 C 19.53125 78.523438 19.761719 78.316406 19.78125 78.328125 C 19.953125 78.449219 20.117188 78.589844 20.25 78.753906 C 20.273438 78.78125 20.140625 78.9375 19.960938 79.226562 C 19.78125 78.945312 19.640625 78.765625 19.546875 78.558594 Z M 113.394531 137.761719 C 113.734375 137.675781 113.933594 137.625 114.128906 137.574219 C 114.125 137.789062 114.121094 138 114.113281 138.210938 C 114.058594 138.226562 114.003906 138.238281 113.945312 138.25 C 113.808594 138.125 113.667969 138.003906 113.394531 137.761719 Z M 79.050781 144.496094 C 79.148438 144.617188 79.25 144.738281 79.398438 144.917969 C 79.195312 145.0625 79.050781 145.164062 78.90625 145.269531 C 78.582031 144.785156 78.582031 144.785156 79.050781 144.496094 Z M 118.148438 134.453125 C 117.871094 134.902344 117.617188 134.78125 117.355469 134.4375 C 117.765625 133.957031 117.8125 133.957031 118.148438 134.453125 Z M 82.824219 137.636719 C 82.824219 137.703125 82.746094 137.820312 82.6875 137.832031 C 82.414062 137.871094 82.136719 137.882812 81.863281 137.90625 C 81.855469 137.859375 81.847656 137.8125 81.835938 137.769531 C 81.953125 137.703125 82.0625 137.628906 82.167969 137.546875 C 82.339844 137.511719 82.515625 137.476562 82.691406 137.449219 C 82.730469 137.445312 82.828125 137.570312 82.824219 137.636719 Z M 66.160156 143.132812 C 66.234375 143.207031 66.308594 143.28125 66.382812 143.355469 C 66.289062 143.421875 66.132812 143.5625 66.109375 143.542969 C 65.992188 143.449219 65.878906 143.351562 65.761719 143.238281 C 65.898438 143.214844 66.03125 143.179688 66.160156 143.132812 Z M 101.75 141.847656 C 101.878906 142.023438 101.980469 142.167969 102.097656 142.332031 C 101.964844 142.46875 101.851562 142.585938 101.746094 142.699219 C 101.214844 142.363281 101.214844 142.320312 101.75 141.847656 Z M 106.875 18.878906 C 106.78125 18.707031 106.671875 18.546875 106.558594 18.386719 C 106.605469 18.363281 106.660156 18.335938 106.71875 18.304688 C 106.898438 18.554688 106.957031 18.746094 106.875 18.878906 Z M 18.609375 59.808594 C 18.746094 59.601562 18.863281 59.425781 18.976562 59.253906 C 19.046875 59.375 19.191406 59.515625 19.164062 59.613281 C 19.105469 59.84375 18.96875 60.058594 18.859375 60.28125 C 18.785156 60.140625 18.710938 60 18.609375 59.808594 Z M 16.351562 63.355469 C 16.351562 63.449219 16.359375 63.542969 16.367188 63.632812 C 16.203125 63.714844 16.066406 63.691406 15.933594 63.472656 C 15.871094 63.375 15.9375 63.199219 15.945312 63.058594 C 16.078125 63.097656 16.210938 63.136719 16.363281 63.183594 C 16.359375 63.238281 16.351562 63.296875 16.351562 63.355469 Z M 19.40625 105.304688 C 19.605469 105.402344 19.777344 105.558594 19.964844 105.695312 C 19.851562 105.777344 19.742188 105.859375 19.550781 106 C 19.367188 105.800781 19.234375 105.648438 19.097656 105.5 C 19.203125 105.429688 19.34375 105.277344 19.40625 105.304688 Z M 39.554688 141.972656 C 39.792969 142.046875 40.035156 142.117188 40.402344 142.230469 C 40.003906 142.609375 39.75 142.769531 39.523438 142.394531 C 39.464844 142.296875 39.539062 142.113281 39.554688 141.972656 Z M 54.117188 145.050781 C 54.371094 145.09375 54.625 145.136719 54.878906 145.179688 C 54.867188 145.292969 54.855469 145.40625 54.84375 145.519531 C 54.609375 145.527344 54.375 145.550781 54.144531 145.519531 C 54.117188 145.515625 54.128906 145.214844 54.117188 145.050781 Z M 31.367188 142.796875 C 31.496094 143.125 31.347656 143.367188 30.878906 143.542969 C 30.769531 143.582031 30.609375 143.460938 30.46875 143.414062 C 30.480469 143.359375 30.492188 143.304688 30.503906 143.246094 C 30.792969 143.097656 31.078125 142.949219 31.367188 142.796875 Z M 23.820312 27.632812 C 24.570312 27.742188 24.070312 28.238281 24.199219 28.667969 C 23.378906 28.488281 23.855469 27.976562 23.820312 27.632812 Z M 48.675781 145.539062 C 48.179688 145.386719 48.164062 145.207031 48.566406 144.507812 C 49.058594 144.660156 49.066406 144.742188 48.675781 145.539062 Z M 118.621094 32.410156 C 118.820312 32.476562 118.980469 32.519531 119.117188 32.5625 C 119.289062 32.613281 119.425781 32.660156 119.539062 32.738281 C 119.632812 32.796875 119.601562 33.042969 119.628906 33.207031 C 119.46875 33.175781 119.304688 33.15625 119.144531 33.125 C 119.023438 33.105469 118.910156 33.074219 118.800781 33.027344 C 118.703125 32.988281 118.703125 32.722656 118.621094 32.410156 Z M 19.25 101.289062 C 19.253906 101.289062 19.253906 101.289062 19.257812 101.289062 C 19.257812 101.140625 19.234375 100.984375 19.277344 100.847656 C 19.308594 100.753906 19.4375 100.632812 19.519531 100.636719 C 19.601562 100.636719 19.734375 100.761719 19.757812 100.855469 C 19.800781 101.050781 19.828125 101.265625 19.785156 101.457031 C 19.753906 101.613281 19.609375 101.742188 19.515625 101.886719 C 19.425781 101.742188 19.332031 101.601562 19.25 101.449219 C 19.226562 101.410156 19.25 101.34375 19.25 101.289062 Z M 22.664062 71.597656 C 22.550781 71.75 22.464844 71.867188 22.320312 72.058594 C 22.023438 71.757812 21.75 71.488281 21.476562 71.214844 C 21.601562 71.148438 21.769531 70.992188 21.839844 71.03125 C 22.113281 71.171875 22.351562 71.375 22.664062 71.597656 Z M 123.808594 129.738281 C 123.824219 129.761719 123.84375 129.777344 123.859375 129.800781 C 123.859375 129.804688 123.859375 129.808594 123.859375 129.8125 C 123.824219 130.007812 123.789062 130.199219 123.753906 130.394531 C 123.550781 130.222656 123.355469 130.035156 123.148438 129.84375 C 123.378906 129.429688 123.578125 129.421875 123.808594 129.738281 Z M 116.191406 51.800781 C 116.507812 51.941406 116.808594 52.125 117.113281 52.292969 C 117.042969 52.394531 116.972656 52.492188 116.851562 52.671875 C 116.484375 52.421875 116.191406 52.21875 115.898438 52.019531 C 116 51.941406 116.136719 51.777344 116.191406 51.800781 Z M 117.234375 135.65625 C 116.886719 135.773438 116.566406 135.898438 116.238281 135.980469 C 116.144531 136.003906 116.023438 135.90625 115.917969 135.867188 C 115.976562 135.769531 116.007812 135.636719 116.09375 135.582031 C 116.277344 135.472656 116.503906 135.417969 116.691406 135.308594 C 117.011719 135.121094 117.15625 135.246094 117.234375 135.65625 Z M 118.679688 130.417969 C 118.699219 130.402344 118.71875 130.382812 118.734375 130.363281 C 118.886719 130.210938 119.03125 130.054688 119.167969 129.890625 C 119.296875 129.90625 119.421875 129.921875 119.539062 129.953125 C 119.644531 129.980469 119.714844 130.132812 119.800781 130.230469 C 119.683594 130.316406 119.578125 130.464844 119.457031 130.476562 C 119.222656 130.492188 118.984375 130.449219 118.679688 130.417969 Z M 59.304688 145.792969 C 59.292969 145.882812 59.121094 146.003906 59.007812 146.019531 C 58.777344 146.050781 58.535156 146.019531 58.214844 146.011719 C 58.242188 145.757812 58.265625 145.5625 58.292969 145.3125 C 58.59375 145.375 58.847656 145.398438 59.082031 145.488281 C 59.1875 145.527344 59.316406 145.695312 59.304688 145.792969 Z M 20.605469 51.796875 C 20.246094 52.246094 19.980469 52.582031 19.710938 52.917969 C 19.640625 52.890625 19.574219 52.863281 19.507812 52.835938 C 19.617188 52.453125 19.703125 52.058594 19.863281 51.695312 C 19.890625 51.640625 20.273438 51.746094 20.605469 51.796875 Z M 103.109375 143.757812 C 103.113281 144.015625 103.421875 144.449219 102.882812 144.484375 C 102.78125 144.488281 102.652344 144.070312 102.519531 143.816406 C 102.664062 143.535156 102.773438 143.320312 102.882812 143.105469 C 102.964844 143.324219 103.109375 143.539062 103.109375 143.757812 Z M 24.324219 80.445312 C 24.339844 80.765625 24.363281 81.085938 24.382812 81.402344 C 24.253906 81.257812 24.085938 81.011719 23.84375 80.644531 C 24.054688 80.425781 24.164062 80.328125 24.324219 80.445312 Z M 115.742188 42.742188 C 116.175781 42.136719 116.363281 42.140625 117.007812 42.792969 C 116.316406 43.296875 116.207031 43.289062 115.742188 42.742188 Z M 22.785156 48.296875 C 22.417969 48.367188 22.035156 48.339844 21.65625 48.347656 C 21.703125 48.207031 21.714844 47.964844 21.796875 47.9375 C 22.140625 47.820312 22.503906 47.769531 23.011719 47.664062 C 22.910156 47.960938 22.875 48.28125 22.785156 48.296875 Z M 20.148438 91.855469 C 20.25 91.949219 20.261719 92.140625 20.316406 92.289062 C 20.15625 92.289062 19.988281 92.324219 19.84375 92.277344 C 19.671875 92.21875 19.53125 92.082031 19.367188 92 C 18.976562 91.800781 19.023438 91.582031 19.34375 91.289062 C 19.636719 91.492188 19.914062 91.648438 20.148438 91.855469 Z M 109.375 138.476562 C 109.078125 138.457031 108.777344 138.46875 108.480469 138.445312 C 108.644531 138.28125 108.800781 138.105469 108.949219 137.925781 C 109.214844 137.910156 109.476562 137.898438 109.742188 137.882812 C 109.875 138.285156 109.816406 138.5 109.375 138.476562 Z M 109.136719 140.601562 C 108.859375 140.234375 108.597656 139.886719 108.304688 139.5 C 108.449219 139.367188 108.578125 139.253906 108.75 139.101562 C 109.042969 139.476562 109.308594 139.820312 109.617188 140.214844 C 109.433594 140.363281 109.3125 140.460938 109.136719 140.601562 Z M 116.035156 67.402344 C 115.820312 67.421875 115.644531 67.53125 115.476562 67.648438 C 115.476562 67.585938 115.480469 67.523438 115.484375 67.457031 C 115.503906 67.269531 115.519531 67.082031 115.535156 66.898438 C 115.5625 66.875 115.589844 66.855469 115.621094 66.832031 C 115.746094 67.003906 115.847656 67.144531 116.035156 67.402344 Z M 108.238281 17.742188 C 108.363281 17.667969 108.496094 17.53125 108.617188 17.539062 C 109 17.566406 109.375 17.648438 109.835938 17.726562 C 109.773438 17.980469 109.730469 18.152344 109.671875 18.390625 C 109.253906 18.269531 108.863281 18.171875 108.488281 18.035156 C 108.382812 17.996094 108.320312 17.839844 108.238281 17.742188 Z M 94.714844 17.308594 C 94.492188 17.09375 94.292969 16.902344 94.101562 16.714844 C 94.285156 16.558594 94.464844 16.398438 94.644531 16.238281 C 94.808594 16.421875 95.007812 16.578125 95.222656 16.78125 C 95.039062 16.972656 94.882812 17.136719 94.714844 17.308594 Z M 16.5625 40.128906 C 16.601562 40.09375 16.65625 40.070312 16.714844 40.054688 C 16.550781 40.402344 16.429688 40.773438 16.355469 41.15625 C 16.21875 41.335938 16.074219 41.519531 15.921875 41.710938 C 15.75 41.554688 15.644531 41.457031 15.550781 41.375 C 15.558594 41.308594 15.550781 41.261719 15.570312 41.238281 C 15.898438 40.863281 16.214844 40.484375 16.5625 40.128906 Z M 18.984375 29.882812 C 19.046875 29.71875 19.09375 29.550781 19.125 29.375 C 19.160156 29.417969 19.1875 29.460938 19.203125 29.503906 C 19.234375 29.601562 19.101562 29.820312 18.984375 29.882812 Z M 21.527344 109.007812 C 21.71875 109.40625 21.890625 109.773438 22.09375 110.199219 C 21.890625 110.316406 21.691406 110.425781 21.5 110.53125 C 20.746094 109.605469 20.746094 109.265625 21.527344 109.007812 Z M 96.265625 16.984375 C 96.203125 16.820312 96.203125 16.585938 96.28125 16.4375 C 96.320312 16.367188 96.617188 16.378906 96.765625 16.433594 C 97.082031 16.550781 97.378906 16.722656 97.679688 16.875 C 97.671875 16.953125 97.664062 17.035156 97.65625 17.113281 C 97.3125 17.207031 96.972656 17.34375 96.625 17.375 C 96.511719 17.386719 96.324219 17.144531 96.265625 16.984375 Z M 110.988281 20.21875 C 110.847656 20.0625 110.691406 19.847656 110.503906 19.566406 C 111.109375 19.582031 111.617188 19.585938 112.125 19.613281 C 112.21875 19.621094 112.382812 19.707031 112.386719 19.761719 C 112.386719 19.867188 112.320312 19.996094 112.242188 20.074219 C 112.085938 20.226562 111.953125 20.34375 111.828125 20.417969 C 111.527344 20.605469 111.292969 20.554688 110.988281 20.21875 Z M 105.507812 141.882812 C 106.144531 141.96875 106.757812 142.050781 107.402344 142.140625 C 107.371094 142.367188 107.351562 142.523438 107.324219 142.746094 C 106.691406 142.671875 106.089844 142.601562 105.414062 142.519531 C 105.449219 142.285156 105.472656 142.125 105.507812 141.882812 Z M 18.613281 77.910156 C 18.632812 77.96875 18.652344 78.027344 18.671875 78.082031 C 18.179688 78.386719 17.6875 78.6875 17.195312 78.992188 C 17.195312 78.695312 17.1875 78.398438 17.175781 78.097656 C 17.199219 78.089844 17.226562 78.082031 17.25 78.078125 C 17.695312 77.976562 18.15625 77.964844 18.613281 77.910156 Z M 93.253906 145.566406 C 93.773438 145.582031 94.199219 145.589844 94.722656 145.605469 C 94.511719 146.09375 94.320312 146.535156 94.09375 147.066406 C 94.042969 147.070312 93.988281 147.078125 93.9375 147.082031 C 93.695312 146.546875 93.488281 146.085938 93.253906 145.566406 Z M 46.550781 147.746094 C 46.734375 147.878906 46.851562 147.960938 47.027344 148.085938 C 46.832031 148.378906 46.632812 148.667969 46.4375 148.964844 C 46.191406 148.945312 45.945312 148.925781 45.703125 148.90625 C 45.980469 148.523438 46.257812 148.144531 46.550781 147.746094 Z M 20.386719 26.183594 C 20.394531 26.082031 20.5625 25.910156 20.664062 25.910156 C 21.1875 25.894531 21.714844 25.921875 22.410156 25.9375 C 21.996094 26.296875 21.730469 26.574219 21.421875 26.789062 C 21.125 26.996094 20.359375 26.542969 20.386719 26.183594 Z M 24.152344 92.027344 C 23.742188 91.703125 23.398438 91.429688 23.0625 91.164062 C 23.265625 90.511719 23.339844 90.667969 24.757812 90.882812 C 24.5625 91.25 24.378906 91.597656 24.152344 92.027344 Z M 88.914062 145.28125 C 89.492188 145.464844 90.027344 145.636719 90.738281 145.863281 C 90.042969 146.1875 89.492188 146.445312 88.878906 146.730469 C 88.894531 146.207031 88.902344 145.773438 88.914062 145.28125 Z M 109.691406 17.242188 C 109.4375 16.757812 109.210938 16.328125 108.992188 15.917969 C 109.300781 16.054688 109.625 16.160156 109.964844 16.230469 C 109.925781 16.542969 109.785156 16.875 109.691406 17.242188 Z M 24.292969 51.894531 C 24.394531 51.867188 24.5 51.851562 24.660156 51.816406 C 24.5 52.363281 24.242188 52.765625 23.746094 52.90625 C 23.199219 53.058594 22.761719 52.769531 22.253906 52.410156 C 23.007812 52.21875 23.652344 52.054688 24.292969 51.894531 Z M 77.550781 139.222656 C 77.351562 139.132812 77.226562 138.871094 77.066406 138.6875 C 77.261719 138.558594 77.453125 138.332031 77.660156 138.316406 C 78.109375 138.285156 78.566406 138.359375 79.105469 138.394531 C 78.660156 139.164062 78.09375 139.464844 77.550781 139.222656 Z M 18.824219 68.375 C 18.105469 67.597656 18.15625 67.296875 19.152344 66.609375 C 19.894531 67.363281 19.871094 67.476562 18.824219 68.375 Z M 64.816406 145.136719 C 63.535156 145.921875 62.855469 145.664062 62.609375 144.265625 C 63.363281 144.5625 64.0625 144.839844 64.816406 145.136719 Z M 23.207031 67.75 C 23.535156 68.140625 23.867188 68.535156 24.207031 68.945312 C 24.199219 69.09375 24.195312 69.242188 24.191406 69.390625 C 23.765625 69.699219 23.691406 69.613281 23.246094 69 C 22.628906 68.148438 22.628906 68.148438 23.207031 67.75 Z M 111.742188 132.820312 C 111.964844 133.484375 112.15625 134.054688 112.386719 134.742188 C 111.78125 134.550781 111.300781 134.398438 110.722656 134.21875 C 111.003906 133.757812 111.261719 133.335938 111.570312 132.832031 C 111.628906 132.828125 111.6875 132.824219 111.742188 132.820312 Z M 23.433594 65.921875 C 23.738281 65.988281 24.03125 66.136719 24.359375 66.285156 C 24.347656 66.46875 24.332031 66.652344 24.320312 66.835938 C 24.191406 67.167969 24.066406 67.5 23.914062 67.90625 C 23.570312 67.292969 23.269531 66.785156 23.015625 66.253906 C 22.996094 66.214844 23.316406 65.898438 23.433594 65.921875 Z M 110.660156 145.839844 C 110.667969 145.890625 110.675781 145.941406 110.683594 145.992188 C 110.632812 146.027344 110.578125 146.0625 110.527344 146.09375 C 110.027344 146.085938 109.527344 146.070312 109.027344 146.050781 C 109.035156 145.847656 109.039062 145.636719 109.042969 145.414062 C 109.578125 145.554688 110.117188 145.695312 110.660156 145.839844 Z M 97.121094 139.175781 C 97.632812 139.625 98.199219 140.003906 98.804688 140.304688 C 98.734375 140.355469 98.664062 140.390625 98.589844 140.40625 C 97.949219 140.542969 97.511719 140.136719 97.121094 139.175781 Z M 117.222656 72.820312 C 117.332031 72.824219 117.4375 72.847656 117.644531 72.871094 C 117.554688 73.148438 117.523438 73.382812 117.40625 73.554688 C 117.320312 73.675781 117.089844 73.800781 116.960938 73.769531 C 116.636719 73.691406 116.320312 73.597656 116.003906 73.492188 C 115.886719 73.257812 115.769531 73.019531 115.652344 72.785156 C 116.175781 72.785156 116.699219 72.804688 117.222656 72.820312 Z M 119.816406 138.851562 C 119.855469 139.3125 119.898438 139.773438 119.9375 140.242188 C 119.871094 140.355469 119.800781 140.46875 119.730469 140.582031 C 119.414062 140.40625 119.058594 140.289062 118.679688 140.246094 C 118.667969 140.179688 118.65625 140.113281 118.65625 140.046875 C 118.648438 139.382812 118.894531 139.113281 119.816406 138.851562 Z M 114.289062 24.273438 C 113.859375 23.898438 113.5 23.585938 113.050781 23.195312 C 114.007812 22.773438 114.875 22.394531 115.742188 22.011719 C 115.777344 22.050781 115.816406 22.085938 115.855469 22.125 C 115.347656 22.820312 114.835938 23.515625 114.289062 24.273438 Z M 20.90625 31.90625 C 22.078125 32.550781 23.183594 33.160156 24.300781 33.777344 C 24.300781 33.785156 24.300781 33.796875 24.300781 33.804688 C 22.730469 34.722656 20.996094 33.792969 20.90625 31.90625 Z M 121.695312 124.871094 C 121.757812 124.984375 121.757812 125.207031 121.683594 125.296875 C 121.605469 125.386719 121.375 125.441406 121.269531 125.394531 C 121.203125 125.363281 121.136719 125.332031 121.070312 125.300781 C 121.085938 125.085938 121.097656 124.871094 121.097656 124.652344 C 121.097656 124.359375 121.082031 124.066406 121.050781 123.773438 C 121.265625 124.140625 121.496094 124.496094 121.695312 124.871094 Z M 74.9375 96.984375 C 74.925781 96.988281 74.914062 96.988281 74.898438 96.988281 C 74.789062 96.988281 74.6875 96.90625 74.667969 96.789062 C 74.648438 96.664062 74.734375 96.542969 74.863281 96.523438 L 97.257812 92.925781 C 97.382812 92.90625 97.503906 92.996094 97.523438 93.121094 C 97.546875 93.25 97.457031 93.371094 97.332031 93.390625 Z M 107.878906 87.066406 L 73.714844 92.199219 C 73.703125 92.199219 73.691406 92.199219 73.679688 92.199219 C 73.566406 92.199219 73.46875 92.117188 73.449219 92 C 73.429688 91.875 73.515625 91.753906 73.648438 91.734375 L 107.8125 86.601562 C 107.9375 86.582031 108.058594 86.671875 108.078125 86.800781 C 108.097656 86.925781 108.007812 87.046875 107.878906 87.066406 Z M 92.992188 74.085938 C 93.117188 74.066406 93.238281 74.152344 93.257812 74.28125 C 93.277344 74.410156 93.191406 74.53125 93.066406 74.550781 L 70.671875 78.144531 C 70.660156 78.144531 70.648438 78.148438 70.636719 78.148438 C 70.519531 78.148438 70.421875 78.066406 70.402344 77.949219 C 70.382812 77.824219 70.46875 77.703125 70.597656 77.679688 Z M 100.238281 68.730469 L 68.992188 73.300781 C 68.980469 73.300781 68.96875 73.304688 68.957031 73.304688 C 68.84375 73.304688 68.742188 73.21875 68.726562 73.101562 C 68.707031 72.976562 68.796875 72.855469 68.925781 72.835938 L 100.171875 68.269531 C 100.296875 68.25 100.417969 68.335938 100.4375 68.464844 C 100.453125 68.59375 100.367188 68.710938 100.238281 68.730469 Z M 101.773438 63.597656 L 67.605469 68.730469 C 67.59375 68.730469 67.582031 68.734375 67.570312 68.734375 C 67.457031 68.734375 67.359375 68.648438 67.339844 68.535156 C 67.320312 68.40625 67.410156 68.285156 67.539062 68.269531 L 101.703125 63.132812 C 101.832031 63.117188 101.949219 63.203125 101.96875 63.332031 C 101.988281 63.460938 101.898438 63.578125 101.773438 63.597656 Z M 87.480469 53.46875 L 65.089844 57.0625 C 65.078125 57.0625 65.066406 57.0625 65.050781 57.0625 C 64.9375 57.0625 64.839844 56.984375 64.820312 56.867188 C 64.800781 56.738281 64.886719 56.621094 65.015625 56.597656 L 87.40625 53.003906 C 87.535156 52.984375 87.65625 53.070312 87.675781 53.199219 C 87.695312 53.328125 87.609375 53.449219 87.480469 53.46875 Z M 94.851562 47.382812 C 94.871094 47.511719 94.785156 47.628906 94.65625 47.648438 L 63.410156 52.21875 C 63.398438 52.21875 63.386719 52.21875 63.375 52.21875 C 63.261719 52.21875 63.160156 52.136719 63.144531 52.019531 C 63.125 51.890625 63.214844 51.773438 63.339844 51.753906 L 94.585938 47.183594 C 94.714844 47.164062 94.835938 47.253906 94.851562 47.382812 Z M 61.957031 47.183594 L 96.121094 42.050781 C 96.25 42.03125 96.367188 42.121094 96.386719 42.25 C 96.40625 42.375 96.316406 42.496094 96.191406 42.515625 L 62.023438 47.648438 C 62.011719 47.648438 62 47.648438 61.988281 47.648438 C 61.875 47.648438 61.777344 47.566406 61.757812 47.453125 C 61.738281 47.324219 61.828125 47.203125 61.957031 47.183594 Z M 82.5625 131.914062 L 68.246094 136.699219 L 56.253906 140.703125 C 56.253906 140.703125 55.125 140.582031 52.878906 138.203125 C 52.023438 137.300781 51.007812 136.070312 49.832031 134.394531 C 48.046875 131.855469 45.890625 128.292969 43.363281 123.300781 C 34.128906 105.035156 30 59.25 30 59.25 C 36.195312 121.820312 57.074219 135.78125 57.074219 135.78125 L 106.875 123.792969 Z M 64.679688 9.207031 C 63.238281 9.207031 62.066406 8.03125 62.066406 6.589844 C 62.066406 5.148438 63.238281 3.976562 64.679688 3.976562 C 66.117188 3.976562 67.289062 5.148438 67.289062 6.589844 C 67.289062 8.03125 66.117188 9.207031 64.679688 9.207031 Z M 64.679688 3.507812 C 62.980469 3.507812 61.597656 4.890625 61.597656 6.589844 C 61.597656 8.289062 62.980469 9.671875 64.679688 9.671875 C 66.375 9.671875 67.757812 8.289062 67.757812 6.589844 C 67.757812 4.890625 66.375 3.507812 64.679688 3.507812"/></svg>