<svg xmlns="http://www.w3.org/2000/svg" xmlns:xlink="http://www.w3.org/1999/xlink" width="120" zoomAndPan="magnify" viewBox="0 0 120 119.999999" height="119.999999" preserveAspectRatio="xMidYMid meet" version="1.0"><defs><clipPath id="id1"><path d="M 5.34375 6.765625 L 114.84375 6.765625 L 114.84375 117 L 5.34375 117 Z M 5.34375 6.765625 " clip-rule="nonzero"/></clipPath></defs><g clip-path="url(#id1)"><path fill="rgb(94.898987%, 32.939148%, 41.958618%)" d="M 5.371094 61.425781 C 5.371094 91.605469 29.878906 116.066406 60.113281 116.066406 C 90.347656 116.066406 114.851562 91.605469 114.851562 61.425781 C 114.851562 31.246094 90.347656 6.78125 60.113281 6.78125 C 29.878906 6.78125 5.371094 31.246094 5.371094 61.425781 " fill-opacity="1" fill-rule="nonzero"/></g><path fill="rgb(51.759338%, 32.159424%, 19.60907%)" d="M 79.757812 102.738281 L 41.511719 102.738281 L 41.511719 47.167969 L 79.757812 47.167969 L 79.757812 102.738281 " fill-opacity="1" fill-rule="nonzero"/><path fill="rgb(100%, 100%, 100%)" d="M 92.050781 116.214844 C 89.34375 118.234375 86.4375 120 83.367188 121.480469 C 82.898438 121.707031 82.429688 121.921875 81.957031 122.132812 C 75.289062 125.121094 67.894531 126.78125 60.113281 126.78125 C 52.328125 126.78125 44.941406 125.121094 38.273438 122.132812 C 37.792969 121.921875 37.324219 121.707031 36.859375 121.480469 C 33.789062 120 30.882812 118.234375 28.175781 116.214844 C 28.652344 105.652344 34.273438 96.425781 42.601562 90.976562 C 47.632812 87.683594 53.648438 85.769531 60.113281 85.769531 C 61.097656 85.769531 62.074219 85.816406 63.035156 85.902344 C 68.390625 86.386719 73.363281 88.183594 77.625 90.976562 C 81.457031 93.488281 84.71875 96.796875 87.164062 100.664062 C 90.035156 105.203125 91.789062 110.515625 92.050781 116.214844 " fill-opacity="1" fill-rule="nonzero"/><path fill="rgb(98.429871%, 83.529663%, 75.289917%)" d="M 77.625 90.976562 C 77.136719 94.664062 75.507812 97.992188 73.101562 100.59375 C 69.871094 104.085938 65.25 106.273438 60.113281 106.273438 C 51.882812 106.273438 44.96875 100.652344 43.003906 93.046875 C 42.832031 92.371094 42.695312 91.679688 42.601562 90.976562 C 47.632812 87.683594 53.648438 85.769531 60.113281 85.769531 C 61.097656 85.769531 62.074219 85.8125 63.039062 85.902344 C 63.203125 85.914062 63.371094 85.933594 63.535156 85.949219 C 63.640625 85.960938 63.746094 85.972656 63.847656 85.984375 C 63.960938 85.996094 64.074219 86.011719 64.1875 86.027344 C 64.257812 86.035156 64.332031 86.042969 64.398438 86.054688 C 64.5 86.066406 64.605469 86.082031 64.710938 86.097656 C 64.789062 86.105469 64.871094 86.121094 64.953125 86.132812 C 65.023438 86.140625 65.09375 86.152344 65.164062 86.164062 C 65.28125 86.183594 65.398438 86.203125 65.515625 86.222656 C 66.023438 86.308594 66.53125 86.40625 67.027344 86.515625 L 67.363281 86.589844 C 67.425781 86.609375 67.492188 86.621094 67.554688 86.640625 C 67.671875 86.667969 67.796875 86.695312 67.910156 86.726562 C 67.929688 86.730469 67.949219 86.734375 67.960938 86.738281 C 68.113281 86.773438 68.261719 86.8125 68.410156 86.855469 C 68.570312 86.894531 68.726562 86.9375 68.878906 86.984375 C 69.058594 87.03125 69.230469 87.085938 69.410156 87.136719 C 69.546875 87.179688 69.679688 87.21875 69.816406 87.265625 C 69.902344 87.292969 69.996094 87.320312 70.078125 87.347656 C 70.222656 87.394531 70.363281 87.441406 70.503906 87.492188 C 70.679688 87.550781 70.847656 87.609375 71.019531 87.671875 C 71.035156 87.679688 71.042969 87.683594 71.054688 87.6875 C 71.230469 87.75 71.40625 87.816406 71.582031 87.882812 C 71.710938 87.933594 71.84375 87.980469 71.972656 88.039062 C 72.320312 88.171875 72.65625 88.316406 72.992188 88.460938 L 73.429688 88.660156 C 73.5625 88.71875 73.695312 88.78125 73.828125 88.84375 C 73.949219 88.902344 74.070312 88.960938 74.1875 89.019531 C 74.300781 89.070312 74.40625 89.125 74.515625 89.183594 C 74.585938 89.21875 74.660156 89.253906 74.726562 89.289062 C 75.015625 89.4375 75.300781 89.589844 75.578125 89.742188 C 75.679688 89.796875 75.785156 89.859375 75.882812 89.914062 C 75.949219 89.953125 76.011719 89.984375 76.074219 90.019531 L 76.308594 90.160156 L 76.550781 90.304688 L 76.707031 90.398438 C 76.859375 90.488281 77.003906 90.578125 77.152344 90.671875 C 77.3125 90.773438 77.46875 90.875 77.625 90.976562 " fill-opacity="1" fill-rule="nonzero"/><path fill="rgb(98.429871%, 83.529663%, 75.289917%)" d="M 66.269531 78.621094 L 66.269531 90.707031 C 66.269531 93.765625 63.761719 96.269531 60.703125 96.269531 L 59.523438 96.269531 C 56.464844 96.269531 53.960938 93.765625 53.960938 90.707031 L 53.960938 78.621094 C 53.960938 75.5625 56.464844 73.058594 59.523438 73.058594 L 60.703125 73.058594 C 63.761719 73.058594 66.269531 75.5625 66.269531 78.621094 " fill-opacity="1" fill-rule="nonzero"/><path fill="rgb(97.24884%, 63.529968%, 61.959839%)" d="M 66.269531 78.621094 L 66.269531 85.015625 C 64.4375 86.03125 62.496094 86.621094 60.527344 86.621094 C 58.203125 86.621094 55.984375 85.976562 53.960938 84.851562 L 53.960938 78.621094 C 53.960938 75.5625 56.464844 73.058594 59.523438 73.058594 L 60.703125 73.058594 C 63.761719 73.058594 66.269531 75.5625 66.269531 78.621094 " fill-opacity="1" fill-rule="nonzero"/><path fill="rgb(98.429871%, 83.529663%, 75.289917%)" d="M 79.09375 71.125 C 79.09375 71.125 82.738281 69.886719 85.066406 65.828125 C 87.597656 61.425781 86.007812 58.679688 85.503906 58.085938 C 84.136719 56.460938 82.019531 57.503906 81.671875 58.085938 C 81.324219 58.664062 76.277344 67.816406 79.09375 71.125 " fill-opacity="1" fill-rule="nonzero"/><path fill="rgb(97.24884%, 63.529968%, 61.959839%)" d="M 82.664062 59.527344 C 82.664062 59.527344 84.980469 59.824219 84.167969 63.070312 C 83.351562 66.320312 81.214844 67.605469 78.308594 69.265625 C 75.402344 70.921875 79.761719 60.191406 82.664062 59.527344 " fill-opacity="1" fill-rule="nonzero"/><path fill="rgb(98.429871%, 83.529663%, 75.289917%)" d="M 42.082031 71.125 C 42.082031 71.125 38.4375 69.886719 36.109375 65.828125 C 33.574219 61.425781 35.164062 58.679688 35.664062 58.085938 C 37.035156 56.460938 39.152344 57.503906 39.5 58.085938 C 39.847656 58.664062 44.898438 67.816406 42.082031 71.125 " fill-opacity="1" fill-rule="nonzero"/><path fill="rgb(97.24884%, 63.529968%, 61.959839%)" d="M 38.503906 59.527344 C 38.503906 59.527344 36.195312 59.824219 37.007812 63.070312 C 37.820312 66.320312 39.960938 67.605469 42.863281 69.265625 C 45.769531 70.921875 41.414062 60.191406 38.503906 59.527344 " fill-opacity="1" fill-rule="nonzero"/><path fill="rgb(98.429871%, 83.529663%, 75.289917%)" d="M 82.664062 57.386719 C 82.664062 44.050781 72.804688 33.234375 60.636719 33.234375 C 48.472656 33.234375 38.601562 44.050781 38.601562 57.386719 C 38.601562 70.722656 48.472656 84.664062 60.636719 84.664062 C 72.070312 84.664062 82.664062 70.609375 82.664062 57.386719 " fill-opacity="1" fill-rule="nonzero"/><path fill="rgb(51.759338%, 32.159424%, 19.60907%)" d="M 50.492188 41.675781 C 50.492188 41.675781 57.699219 63.246094 84.335938 75.46875 C 84.335938 75.46875 85.074219 55.707031 84.152344 47.167969 C 83.113281 37.539062 74.046875 26.425781 60.117188 29.324219 C 60.117188 29.324219 47.238281 33.210938 50.492188 41.675781 " fill-opacity="1" fill-rule="nonzero"/><path fill="rgb(51.759338%, 32.159424%, 19.60907%)" d="M 63.316406 33.234375 C 63.316406 33.234375 63.894531 30.71875 61.804688 28.742188 C 59.710938 26.769531 32.023438 30.820312 38.601562 57.386719 C 38.601562 57.386719 45.058594 41.5 62.152344 40.105469 L 63.316406 33.234375 " fill-opacity="1" fill-rule="nonzero"/></svg>